<svg width="35.815918" height="22.971191" viewBox="0 0 35.8159 22.9712" fill="none" xmlns="http://www.w3.org/2000/svg" xmlns:xlink="http://www.w3.org/1999/xlink">
	<desc>
			Created with Pixso.
	</desc>
	<defs>
		<clipPath id="clip1_800">
			<rect id="6" width="35.816044" height="22.971428" fill="white" fill-opacity="0"/>
		</clipPath>
	</defs>
	<rect id="6" width="35.816044" height="22.971428" fill="#FFFFFF" fill-opacity="0"/>
	<g clip-path="url(#clip1_800)">
		<path id="Vector" d="M32.98 0L2.82 0C1.22 0 0 1.24 0 2.87L0 20.1C0 21.72 1.31 22.97 2.82 22.97L32.98 22.97C34.59 22.97 35.81 21.72 35.81 20.1L35.81 2.87C35.81 1.24 34.49 0 32.98 0Z" fill="#F3F5F6" fill-opacity="1.000000" fill-rule="nonzero"/>
		<path id="Vector" d="M32.98 0.95C34.02 0.95 34.87 1.81 34.87 2.87L34.87 20.1C34.87 21.15 34.02 22.01 32.98 22.01L2.82 22.01C1.79 22.01 0.94 21.15 0.94 20.1L0.94 2.87C0.94 1.81 1.79 0.95 2.82 0.95L32.98 0.95Z" fill="#006FCF" fill-opacity="1.000000" fill-rule="nonzero"/>
		<path id="Vector" d="M8.45 9.82L9.18 11.62L7.73 11.62L8.45 9.82ZM23.6 9.9L20.8 9.9L20.8 10.69L23.56 10.69L23.56 11.88L20.8 11.88L20.8 12.76L23.61 12.76L23.61 13.46L25.56 11.32L23.61 9.08L23.6 9.9ZM10.35 7.66L14.11 7.66L14.95 9.51L15.72 7.65L25.5 7.65L26.51 8.79L27.56 7.65L32.05 7.65L28.74 11.34L32.02 15L27.46 15L26.45 13.86L25.39 15L9.45 15L8.98 13.86L7.92 13.86L7.45 15L3.77 15L6.86 7.65L10.1 7.65L10.35 7.66ZM18.51 8.69L16.4 8.69L14.99 12.07L13.46 8.69L11.36 8.69L11.36 13.29L9.42 8.69L7.54 8.69L5.3 13.97L6.76 13.97L7.23 12.83L9.67 12.83L10.14 13.97L12.7 13.97L12.7 10.2L14.35 13.97L15.48 13.97L17.12 10.21L17.12 13.97L18.49 13.97L18.51 8.69L18.51 8.69ZM27.31 11.34L29.7 8.69L27.98 8.69L26.47 10.34L25.02 8.69L19.46 8.69L19.46 13.97L24.94 13.97L26.46 12.31L27.92 13.97L29.68 13.97L27.32 11.34L27.31 11.34Z" fill="#FFFFFF" fill-opacity="1.000000" fill-rule="nonzero"/>
	</g>
</svg>
