<svg width="24.282715" height="16.000000" viewBox="0 0 24.2827 16" fill="none" xmlns="http://www.w3.org/2000/svg" xmlns:xlink="http://www.w3.org/1999/xlink">
	<desc>
			Created with Pixso.
	</desc>
	<defs>
		<clipPath id="clip1_816">
			<rect id="android (1) 1" width="24.282621" height="16.000000" fill="white" fill-opacity="0"/>
		</clipPath>
	</defs>
	<rect id="android (1) 1" width="24.282621" height="16.000000" fill="#FFFFFF" fill-opacity="0"/>
	<g clip-path="url(#clip1_816)">
		<path id="XMLID_221_" d="M14.67 16C15.48 16 16.19 15.53 16.19 14.99L16.19 12.65L17.21 12.65C17.81 12.65 18.22 12.39 18.22 11.99L18.22 5.31L6.05 5.31L6.05 11.99C6.05 12.39 6.46 12.65 7.07 12.65L8.08 12.65L8.08 14.99C8.08 15.53 8.79 16 9.6 16C10.41 16 11.12 15.53 11.12 14.99L11.12 12.65L13.15 12.65L13.15 14.99C13.15 15.53 13.86 16 14.67 16Z" fill="#000000" fill-opacity="1.000000" fill-rule="nonzero"/>
		<path id="XMLID_222_" d="M20.76 11.99C21.57 11.99 22.28 11.52 22.28 10.98L22.28 6.31C22.28 5.77 21.57 5.31 20.76 5.31C19.94 5.31 19.24 5.77 19.24 6.31L19.24 10.98C19.24 11.52 19.94 11.99 20.76 11.99Z" fill="#000000" fill-opacity="1.000000" fill-rule="nonzero"/>
		<path id="XMLID_223_" d="M3.52 11.99C4.33 11.99 5.04 11.52 5.04 10.98L5.04 6.31C5.04 5.77 4.33 5.31 3.52 5.31C2.7 5.31 2 5.77 2 6.31L2 10.98C2 11.52 2.7 11.99 3.52 11.99Z" fill="#000000" fill-opacity="1.000000" fill-rule="nonzero"/>
		<path id="XMLID_224_" d="M17 0.1C16.8 -0.04 16.5 -0.04 16.29 0.1L14.93 0.99L14.87 1.03C14.06 0.77 13.16 0.63 12.15 0.63C12.15 0.63 12.14 0.63 12.14 0.63L12.14 0.63C12.13 0.63 12.13 0.63 12.12 0.63C11.11 0.63 10.21 0.77 9.4 1.03L9.34 0.99L7.98 0.1C7.77 -0.04 7.47 -0.04 7.27 0.1C7.07 0.23 7.07 0.43 7.27 0.56L8.59 1.43C8.16 1.62 7.78 1.84 7.44 2.11C6.64 2.73 6.13 3.55 6.06 4.43C6.06 4.44 6.06 4.45 6.06 4.46C6.05 4.52 6.05 4.58 6.05 4.64L18.22 4.64C18.22 4.58 18.22 4.52 18.21 4.46C18.21 4.45 18.21 4.44 18.21 4.43C18.14 3.55 17.63 2.73 16.83 2.11C16.5 1.84 16.11 1.62 15.69 1.43L17 0.56C17.21 0.43 17.21 0.23 17 0.1ZM9.6 3.47C9.18 3.47 8.84 3.24 8.84 2.97C8.84 2.69 9.18 2.47 9.6 2.47C10.02 2.47 10.36 2.69 10.36 2.97C10.36 3.24 10.02 3.47 9.6 3.47ZM14.67 3.47C14.25 3.47 13.91 3.24 13.91 2.97C13.91 2.69 14.25 2.47 14.67 2.47C15.09 2.47 15.43 2.69 15.43 2.97C15.43 3.24 15.09 3.47 14.67 3.47Z" fill="#000000" fill-opacity="1.000000" fill-rule="nonzero"/>
	</g>
</svg>
