<svg width="35.815918" height="22.971191" viewBox="0 0 35.8159 22.9712" fill="none" xmlns="http://www.w3.org/2000/svg" xmlns:xlink="http://www.w3.org/1999/xlink">
	<desc>
			Created with Pixso.
	</desc>
	<defs>
		<clipPath id="clip1_774">
			<rect id="3" width="35.816044" height="22.971428" fill="white" fill-opacity="0"/>
		</clipPath>
	</defs>
	<rect id="3" width="35.816044" height="22.971428" fill="#FFFFFF" fill-opacity="0"/>
	<g clip-path="url(#clip1_774)">
		<path id="Vector" d="M32.41 0L3.4 0C3.28 0 3.16 0 3.04 0C2.94 0 2.83 0 2.73 0C2.51 0.01 2.29 0.02 2.07 0.06C1.85 0.1 1.64 0.17 1.44 0.27C1.04 0.48 0.71 0.81 0.51 1.21C0.41 1.42 0.34 1.63 0.3 1.86C0.26 2.08 0.25 2.31 0.24 2.53C0.24 2.63 0.24 2.74 0.24 2.84C0.24 2.96 0.24 3.09 0.24 3.21L0.24 19.75C0.24 19.88 0.24 20 0.24 20.12C0.24 20.22 0.24 20.33 0.24 20.43C0.25 20.66 0.26 20.88 0.3 21.11C0.34 21.33 0.41 21.54 0.51 21.75C0.61 21.95 0.74 22.13 0.9 22.29C1.06 22.45 1.24 22.59 1.44 22.69C1.64 22.79 1.85 22.86 2.07 22.9C2.29 22.94 2.51 22.96 2.73 22.96C2.83 22.96 2.94 22.96 3.04 22.97C3.16 22.97 3.28 22.97 3.4 22.97L32.41 22.97C32.53 22.97 32.65 22.97 32.77 22.97C32.87 22.96 32.97 22.96 33.07 22.96C33.29 22.96 33.52 22.94 33.74 22.9C33.96 22.86 34.17 22.79 34.37 22.69C34.77 22.48 35.09 22.15 35.3 21.75C35.4 21.54 35.47 21.33 35.51 21.11C35.55 20.88 35.56 20.66 35.56 20.43C35.57 20.33 35.57 20.22 35.57 20.12C35.57 20 35.57 19.88 35.57 19.75L35.57 3.21C35.57 3.09 35.57 2.96 35.57 2.84C35.57 2.74 35.57 2.63 35.56 2.53C35.56 2.31 35.55 2.08 35.51 1.86C35.47 1.63 35.4 1.42 35.3 1.21C35.09 0.81 34.77 0.48 34.37 0.27C34.17 0.17 33.96 0.1 33.74 0.06C33.52 0.02 33.29 0.01 33.07 0C32.97 0 32.87 0 32.77 0C32.65 0 32.53 0 32.41 0Z" fill="#F3F5F6" fill-opacity="1.000000" fill-rule="nonzero"/>
		<path id="Vector" d="M32.41 0.76L32.76 0.76C32.86 0.76 32.96 0.76 33.05 0.77C33.22 0.77 33.42 0.78 33.6 0.81C33.77 0.84 33.9 0.89 34.03 0.95C34.29 1.09 34.5 1.3 34.63 1.56C34.69 1.69 34.74 1.83 34.76 1.99C34.8 2.18 34.81 2.38 34.81 2.55C34.81 2.65 34.82 2.75 34.82 2.85C34.82 2.97 34.82 3.09 34.82 3.21L34.82 19.75C34.82 19.87 34.82 19.99 34.82 20.12C34.82 20.22 34.81 20.31 34.81 20.41C34.81 20.58 34.8 20.78 34.76 20.97C34.74 21.12 34.69 21.27 34.63 21.4C34.5 21.66 34.29 21.87 34.03 22.01C33.9 22.07 33.77 22.12 33.61 22.15C33.42 22.18 33.21 22.19 33.06 22.2C32.96 22.2 32.86 22.2 32.76 22.2C32.64 22.2 32.52 22.2 32.41 22.2L3.4 22.2C3.28 22.2 3.16 22.2 3.04 22.2C2.95 22.2 2.85 22.2 2.75 22.2C2.59 22.19 2.39 22.18 2.2 22.15C2.05 22.12 1.91 22.08 1.78 22.01C1.65 21.94 1.53 21.85 1.43 21.75C1.33 21.65 1.25 21.53 1.18 21.4C1.11 21.26 1.07 21.12 1.04 20.97C1.01 20.78 1 20.58 1 20.41C0.99 20.31 0.99 20.21 0.99 20.12L0.99 19.83L0.99 3.13L0.99 2.85C0.99 2.75 0.99 2.65 1 2.55C1 2.38 1.01 2.18 1.04 1.99C1.07 1.84 1.11 1.7 1.18 1.56C1.25 1.43 1.33 1.31 1.43 1.21C1.53 1.11 1.65 1.02 1.78 0.95C1.91 0.89 2.05 0.84 2.2 0.81C2.39 0.78 2.58 0.77 2.75 0.77C2.85 0.76 2.95 0.76 3.04 0.76L3.4 0.76L32.41 0.76Z" fill="#FFFFFF" fill-opacity="1.000000" fill-rule="nonzero"/>
		<path id="Vector" d="M9.52 7.75C9.82 7.37 10.03 6.86 9.97 6.34C9.53 6.36 9 6.63 8.69 7.01C8.41 7.34 8.17 7.87 8.23 8.37C8.72 8.41 9.21 8.12 9.52 7.75Z" fill="#000000" fill-opacity="1.000000" fill-rule="nonzero"/>
		<path id="Vector" d="M9.97 8.47C9.25 8.42 8.64 8.88 8.3 8.88C7.96 8.88 7.44 8.49 6.87 8.5C6.14 8.51 5.45 8.93 5.08 9.6C4.31 10.95 4.88 12.94 5.63 14.04C5.99 14.58 6.43 15.18 7 15.15C7.55 15.13 7.76 14.8 8.42 14.8C9.08 14.8 9.27 15.15 9.85 15.14C10.45 15.13 10.82 14.6 11.18 14.06C11.6 13.44 11.77 12.85 11.78 12.81C11.77 12.8 10.63 12.36 10.62 11.02C10.61 9.91 11.51 9.38 11.56 9.34C11.04 8.58 10.25 8.49 9.97 8.47L9.97 8.47Z" fill="#000000" fill-opacity="1.000000" fill-rule="nonzero"/>
		<path id="Vector" d="M17.09 6.96C18.65 6.96 19.73 8.04 19.73 9.63C19.73 11.22 18.63 12.31 17.06 12.31L15.34 12.31L15.34 15.09L14.09 15.09L14.09 6.96L17.09 6.96ZM15.34 11.25L16.76 11.25C17.84 11.25 18.46 10.66 18.46 9.63C18.46 8.61 17.84 8.02 16.77 8.02L15.34 8.02L15.34 11.25Z" fill="#000000" fill-opacity="1.000000" fill-rule="nonzero"/>
		<path id="Vector" d="M20.04 13.4C20.04 12.36 20.82 11.76 22.26 11.67L23.81 11.58L23.81 11.13C23.81 10.47 23.38 10.11 22.62 10.11C22 10.11 21.54 10.43 21.45 10.93L20.33 10.93C20.36 9.88 21.34 9.11 22.66 9.11C24.08 9.11 25 9.87 25 11.04L25 15.09L23.86 15.09L23.86 14.11L23.83 14.11C23.5 14.75 22.78 15.15 22 15.15C20.84 15.15 20.04 14.45 20.04 13.4ZM23.81 12.88L23.81 12.42L22.43 12.51C21.65 12.56 21.25 12.86 21.25 13.37C21.25 13.86 21.67 14.19 22.33 14.19C23.17 14.19 23.81 13.64 23.81 12.88Z" fill="#000000" fill-opacity="1.000000" fill-rule="nonzero"/>
		<path id="Vector" d="M26.06 17.26L26.06 16.29C26.14 16.3 26.33 16.31 26.43 16.31C26.98 16.31 27.29 16.07 27.48 15.46L27.59 15.1L25.48 9.19L26.78 9.19L28.25 13.99L28.27 13.99L29.74 9.19L31.01 9.19L28.82 15.4C28.32 16.83 27.75 17.3 26.54 17.3C26.45 17.3 26.14 17.29 26.06 17.26Z" fill="#000000" fill-opacity="1.000000" fill-rule="nonzero"/>
	</g>
</svg>
