<svg width="29.003906" height="35.000000" viewBox="0 0 29.0039 35" fill="none" xmlns="http://www.w3.org/2000/svg" xmlns:xlink="http://www.w3.org/1999/xlink">
	<desc>
			Created with Pixso.
	</desc>
	<defs/>
	<path id="Vector" d="M14.5 0C6.5 0 0 6.89 0 15.38C0 16.32 0 23.59 0 23.72C0 25.41 1.3 26.79 2.9 26.79L4.03 26.79C4.43 27.99 5.5 28.84 6.76 28.84C8.36 28.84 9.66 27.46 9.66 25.77L9.66 17.43C9.66 15.73 8.36 14.35 6.76 14.35C5.5 14.35 4.43 15.21 4.03 16.4L2.9 16.4C2.56 16.4 2.23 16.46 1.93 16.58L1.93 15.38C1.93 8.03 7.57 2.05 14.5 2.05C21.43 2.05 27.07 8.03 27.07 15.38L27.07 16.58C26.76 16.46 26.44 16.4 26.1 16.4L24.97 16.4C24.57 15.21 23.49 14.35 22.23 14.35C20.63 14.35 19.33 15.73 19.33 17.43L19.33 25.77C19.33 27.46 20.63 28.84 22.23 28.84C22.52 28.84 22.81 28.8 23.07 28.71C22.71 29.97 21.6 30.89 20.3 30.89L17.23 30.89C16.83 29.7 15.76 28.84 14.5 28.84C12.9 28.84 11.6 30.22 11.6 31.92C11.6 33.62 12.9 35 14.5 35C15.76 35 16.83 34.14 17.23 32.94L20.3 32.94C22.96 32.94 25.13 30.64 25.13 27.82L25.13 26.79L26.1 26.79C27.7 26.79 29 25.41 29 23.72C29 23.59 29 16.32 29 15.38C29 6.89 22.49 0 14.5 0ZM5.8 17.43C5.8 16.86 6.23 16.4 6.76 16.4C7.3 16.4 7.73 16.86 7.73 17.43L7.73 25.77C7.73 26.33 7.3 26.79 6.76 26.79C6.23 26.79 5.8 26.33 5.8 25.77L5.8 17.43ZM2.9 18.45L3.86 18.45L3.86 24.74L2.9 24.74C2.36 24.74 1.93 24.28 1.93 23.72L1.93 19.48C1.93 18.91 2.36 18.45 2.9 18.45ZM14.5 32.94C13.96 32.94 13.53 32.48 13.53 31.92C13.53 31.35 13.96 30.89 14.5 30.89C15.03 30.89 15.46 31.35 15.46 31.92C15.46 32.48 15.03 32.94 14.5 32.94ZM23.2 25.77C23.2 26.33 22.76 26.79 22.23 26.79C21.7 26.79 21.26 26.33 21.26 25.77L21.26 17.43C21.26 16.86 21.7 16.4 22.23 16.4C22.76 16.4 23.2 16.86 23.2 17.43L23.2 25.77ZM27.07 23.72C27.07 24.28 26.63 24.74 26.1 24.74L25.13 24.74L25.13 18.45L26.1 18.45C26.63 18.45 27.07 18.91 27.07 19.48L27.07 23.72Z" fill="#041E42" fill-opacity="1.000000" fill-rule="nonzero"/>
</svg>
