<svg width="20.902344" height="20.000000" viewBox="0 0 20.9023 20" fill="none" xmlns="http://www.w3.org/2000/svg" xmlns:xlink="http://www.w3.org/1999/xlink">
	<desc>
			Created with Pixso.
	</desc>
	<defs>
		<clipPath id="clip1_2197">
			<rect id="checked-box 1" width="20.902258" height="20.000000" fill="white" fill-opacity="0"/>
		</clipPath>
	</defs>
	<rect id="checked-box 1" width="20.902258" height="20.000000" fill="#FFFFFF" fill-opacity="0"/>
	<g clip-path="url(#clip1_2197)">
		<path id="Vector" d="M20.9 4.68L20.9 8.43C20.85 9.47 19.31 9.47 19.26 8.43L19.26 4.68C19.26 2.96 17.8 1.56 16 1.56L4.89 1.56C3.09 1.56 1.63 2.96 1.63 4.68L1.63 15.31C1.63 17.03 3.09 18.43 4.89 18.43L8.98 18.43C10.06 18.47 10.06 19.95 8.98 20L4.89 20C2.19 20 0 17.89 0 15.31L0 4.68C0 2.1 2.19 0 4.89 0L16 0C18.7 0 20.9 2.1 20.9 4.68ZM13.34 4.29C13.34 3.86 12.98 3.51 12.53 3.51L8.36 3.51C7.28 3.55 7.28 5.03 8.36 5.07L12.53 5.07C12.98 5.07 13.34 4.72 13.34 4.29ZM20.08 15.51C19.66 15.36 19.19 15.57 19.04 15.98C17.5 19.85 11.58 18.87 11.51 14.72C11.47 12.07 14.49 10.18 17 11.37C17.41 11.55 17.9 11.38 18.09 10.99C18.28 10.59 18.1 10.13 17.69 9.95C14.12 8.28 9.82 10.95 9.87 14.72C9.98 20.62 18.39 22.01 20.57 16.51C20.72 16.1 20.5 15.66 20.08 15.51ZM17.47 15.73L20.66 12.65C20.98 12.35 20.98 11.85 20.66 11.55C20.33 11.25 19.82 11.25 19.5 11.55L16.31 14.63C16.15 14.8 15.85 14.8 15.69 14.64L14.54 13.51C14.23 13.2 13.71 13.2 13.39 13.5C13.06 13.8 13.06 14.29 13.37 14.6L14.52 15.73C14.92 16.11 15.44 16.32 16 16.32C16.56 16.32 17.08 16.11 17.47 15.73Z" fill="#041E42" fill-opacity="1.000000" fill-rule="nonzero"/>
	</g>
</svg>
