<svg width="13.061768" height="14.000000" viewBox="0 0 13.0618 14" fill="none" xmlns="http://www.w3.org/2000/svg" xmlns:xlink="http://www.w3.org/1999/xlink">
	<desc>
			Created with Pixso.
	</desc>
	<defs/>
	<path id="Vector" d="M12.42 14C12.34 14 12.25 13.98 12.17 13.94C12.1 13.91 12.03 13.86 11.97 13.79L0.18 1.16C0.06 1.03 0 0.86 0 0.68C0 0.5 0.06 0.32 0.18 0.2C0.3 0.07 0.46 0 0.63 0C0.8 0 0.96 0.07 1.08 0.2L12.87 12.83C12.96 12.92 13.02 13.05 13.04 13.18C13.07 13.31 13.06 13.45 13.01 13.57C12.96 13.7 12.88 13.8 12.77 13.88C12.67 13.96 12.55 14 12.42 14Z" fill="#041E42" fill-opacity="1.000000" fill-rule="nonzero"/>
</svg>
