<svg width="13.061523" height="14.000000" viewBox="0 0 13.0615 14" fill="none" xmlns="http://www.w3.org/2000/svg" xmlns:xlink="http://www.w3.org/1999/xlink">
	<desc>
			Created with Pixso.
	</desc>
	<defs>
		<clipPath id="clip1_1561">
			<rect id="close 1" width="13.061621" height="14.000000" fill="white" fill-opacity="0"/>
		</clipPath>
	</defs>
	<rect id="close 1" width="13.061621" height="14.000000" fill="#FFFFFF" fill-opacity="0"/>
	<g clip-path="url(#clip1_1561)">
		<path id="Vector" d="M0.63 14C0.51 14 0.38 13.96 0.28 13.88C0.17 13.8 0.09 13.7 0.04 13.57C0 13.45 -0.02 13.31 0.01 13.18C0.03 13.05 0.09 12.92 0.18 12.83L11.97 0.2C12.09 0.07 12.25 0 12.42 0C12.59 0 12.75 0.07 12.87 0.2C12.99 0.32 13.06 0.5 13.06 0.68C13.06 0.86 12.99 1.03 12.87 1.16L1.08 13.79C1.02 13.86 0.95 13.91 0.88 13.94C0.8 13.98 0.72 14 0.63 14Z" fill="#041E42" fill-opacity="1.000000" fill-rule="nonzero"/>
		<path id="Vector" d="M12.42 14C12.34 14 12.25 13.98 12.17 13.94C12.1 13.91 12.03 13.86 11.97 13.79L0.18 1.16C0.06 1.03 0 0.86 0 0.68C0 0.5 0.06 0.32 0.18 0.2C0.3 0.07 0.46 0 0.63 0C0.8 0 0.96 0.07 1.08 0.2L12.87 12.83C12.96 12.92 13.02 13.05 13.04 13.18C13.07 13.31 13.06 13.45 13.01 13.57C12.96 13.7 12.88 13.8 12.77 13.88C12.67 13.96 12.55 14 12.42 14Z" fill="#041E42" fill-opacity="1.000000" fill-rule="nonzero"/>
	</g>
</svg>
