<svg width="35.815918" height="22.971191" viewBox="0 0 35.8159 22.9712" fill="none" xmlns="http://www.w3.org/2000/svg" xmlns:xlink="http://www.w3.org/1999/xlink">
	<desc>
			Created with Pixso.
	</desc>
	<defs>
		<clipPath id="clip1_785">
			<rect id="4" width="35.816044" height="22.971428" fill="white" fill-opacity="0"/>
		</clipPath>
		<linearGradient x1="20.412281" y1="11.749084" x2="18.503666" y2="8.713985" id="paint_linear_1_789_0" gradientUnits="userSpaceOnUse">
			<stop stop-color="#F89F20"/>
			<stop offset="0.250000" stop-color="#F79A20"/>
			<stop offset="0.533000" stop-color="#F68D20"/>
			<stop offset="0.620000" stop-color="#F58720"/>
			<stop offset="0.723000" stop-color="#F48120"/>
			<stop offset="1.000000" stop-color="#F37521"/>
		</linearGradient>
		<linearGradient x1="20.111614" y1="11.707927" x2="17.321732" y2="6.169899" id="paint_linear_1_790_0" gradientUnits="userSpaceOnUse">
			<stop stop-color="#F58720"/>
			<stop offset="0.359000" stop-color="#E16F27"/>
			<stop offset="0.703000" stop-color="#D4602C"/>
			<stop offset="0.982000" stop-color="#D05B2E"/>
		</linearGradient>
	</defs>
	<rect id="4" width="35.816044" height="22.971428" fill="#FFFFFF" fill-opacity="0"/>
	<g clip-path="url(#clip1_785)">
		<path id="Vector" d="M32.98 0L2.82 0C1.22 0 0 1.24 0 2.87L0 20.1C0 21.72 1.31 22.97 2.82 22.97L32.98 22.97C34.59 22.97 35.81 21.72 35.81 20.1L35.81 2.87C35.81 1.24 34.49 0 32.98 0Z" fill="#F3F5F6" fill-opacity="1.000000" fill-rule="nonzero"/>
		<path id="Vector" d="M32.98 0.95C34.02 0.95 34.87 1.81 34.87 2.87L34.87 20.1C34.87 21.15 34.02 22.01 32.98 22.01L2.82 22.01C1.79 22.01 0.94 21.15 0.94 20.1L0.94 2.87C0.94 1.81 1.79 0.95 2.82 0.95L32.98 0.95Z" fill="#FFFFFF" fill-opacity="1.000000" fill-rule="nonzero"/>
		<path id="Vector" d="M3.36 6.85L1.88 6.85L1.88 12.11L3.36 12.11C4.14 12.11 4.71 11.92 5.21 11.51C5.8 11.01 6.15 10.27 6.15 9.49C6.14 7.93 5 6.85 3.36 6.85ZM4.55 10.81C4.23 11.1 3.82 11.23 3.16 11.23L2.89 11.23L2.89 7.75L3.16 7.75C3.81 7.75 4.21 7.86 4.55 8.17C4.9 8.48 5.1 8.97 5.1 9.48C5.1 9.99 4.9 10.5 4.55 10.81ZM6.61 6.85L7.62 6.85L7.62 12.11L6.61 12.11L6.61 6.85ZM10.09 8.87C9.49 8.64 9.31 8.48 9.31 8.21C9.31 7.87 9.63 7.62 10.06 7.62C10.36 7.62 10.62 7.75 10.87 8.05L11.4 7.36C10.97 6.97 10.45 6.77 9.87 6.77C8.96 6.77 8.25 7.42 8.25 8.28C8.25 9.01 8.58 9.38 9.52 9.73C9.92 9.87 10.12 9.97 10.22 10.03C10.42 10.16 10.52 10.35 10.52 10.57C10.52 11 10.19 11.32 9.74 11.32C9.26 11.32 8.87 11.07 8.64 10.62L7.99 11.26C8.45 11.96 9.02 12.27 9.78 12.27C10.83 12.27 11.57 11.56 11.57 10.53C11.59 9.68 11.24 9.3 10.09 8.87ZM11.9 9.49C11.9 11.04 13.1 12.24 14.63 12.24C15.07 12.24 15.44 12.15 15.9 11.93L15.9 10.72C15.49 11.14 15.13 11.3 14.68 11.3C13.66 11.3 12.94 10.55 12.94 9.48C12.94 8.47 13.68 7.67 14.63 7.67C15.11 7.67 15.48 7.84 15.9 8.26L15.9 7.06C15.45 6.83 15.08 6.73 14.65 6.73C13.13 6.73 11.9 7.96 11.9 9.49ZM23.93 10.39L22.54 6.85L21.44 6.85L23.63 12.25L24.18 12.25L26.41 6.85L25.32 6.85L23.93 10.39ZM26.88 12.11L29.74 12.11L29.74 11.22L27.88 11.22L27.88 9.81L29.68 9.81L29.68 8.92L27.88 8.92L27.88 7.75L29.74 7.75L29.74 6.85L26.88 6.85L26.88 12.11ZM33.75 8.41C33.75 7.42 33.08 6.86 31.91 6.86L30.41 6.86L30.41 12.12L31.42 12.12L31.42 10.01L31.55 10.01L32.95 12.12L34.19 12.12L32.56 9.9C33.32 9.74 33.75 9.21 33.75 8.41ZM31.71 9.28L31.42 9.28L31.42 7.68L31.73 7.68C32.36 7.68 32.7 7.95 32.7 8.47C32.7 8.99 32.36 9.28 31.71 9.28Z" fill="#231F20" fill-opacity="1.000000" fill-rule="nonzero"/>
		<path id="Vector" d="M19 12.3C19.73 12.3 20.43 12.01 20.95 11.48C21.47 10.96 21.76 10.24 21.76 9.5C21.76 8.75 21.47 8.04 20.95 7.52C20.43 6.99 19.73 6.69 19 6.69C18.26 6.69 17.56 6.99 17.04 7.52C16.52 8.04 16.23 8.75 16.23 9.5C16.23 10.24 16.52 10.96 17.04 11.48C17.56 12.01 18.26 12.3 19 12.3Z" fill="url(#paint_linear_1_789_0)" fill-opacity="1.000000" fill-rule="nonzero"/>
		<g opacity="0.650000">
			<path id="Vector" d="M19 12.3C19.73 12.3 20.43 12.01 20.95 11.48C21.47 10.96 21.76 10.24 21.76 9.5C21.76 8.75 21.47 8.04 20.95 7.52C20.43 6.99 19.73 6.69 19 6.69C18.26 6.69 17.56 6.99 17.04 7.52C16.52 8.04 16.23 8.75 16.23 9.5C16.23 10.24 16.52 10.96 17.04 11.48C17.56 12.01 18.26 12.3 19 12.3Z" fill="url(#paint_linear_1_790_0)" fill-opacity="1.000000" fill-rule="nonzero"/>
		</g>
		<path id="Vector" d="M34.46 7.18C34.46 7.08 34.4 7.04 34.29 7.04L34.14 7.04L34.14 7.5L34.26 7.5L34.26 7.31L34.39 7.5L34.52 7.5L34.37 7.3C34.43 7.29 34.46 7.25 34.46 7.18ZM34.27 7.25L34.26 7.25L34.26 7.12L34.27 7.12C34.33 7.12 34.36 7.14 34.36 7.18C34.36 7.23 34.33 7.25 34.27 7.25Z" fill="#231F20" fill-opacity="1.000000" fill-rule="nonzero"/>
		<path id="Vector" d="M34.31 6.86C34.1 6.86 33.92 7.05 33.92 7.27C33.92 7.49 34.1 7.67 34.31 7.67C34.53 7.67 34.71 7.49 34.71 7.27C34.71 7.05 34.53 6.86 34.31 6.86ZM34.31 7.6C34.14 7.6 33.99 7.46 33.99 7.27C33.99 7.08 34.13 6.93 34.31 6.93C34.48 6.93 34.62 7.08 34.62 7.27C34.62 7.45 34.48 7.6 34.31 7.6Z" fill="#231F20" fill-opacity="1.000000" fill-rule="nonzero"/>
		<path id="Vector" d="M34.87 12.42C34.87 12.42 25.53 19.02 8.45 22.01L32.98 22.01C33.48 22.01 33.96 21.81 34.31 21.45C34.66 21.1 34.86 20.62 34.87 20.11L34.89 17.22L34.87 12.42L34.87 12.42Z" fill="#F48120" fill-opacity="1.000000" fill-rule="nonzero"/>
	</g>
</svg>
