<svg width="35.625000" height="30.000000" viewBox="0 0 35.625 30" fill="none" xmlns="http://www.w3.org/2000/svg" xmlns:xlink="http://www.w3.org/1999/xlink">
	<desc>
			Created with Pixso.
	</desc>
	<defs>
		<clipPath id="clip1_841">
			<rect width="35.625000" height="30.000000" fill="white" fill-opacity="0"/>
		</clipPath>
	</defs>
	<rect width="35.625000" height="30.000000" fill="#FFFFFF" fill-opacity="0"/>
	<g clip-path="url(#clip1_841)">
		<path d="M35.62 7.47L35.62 6.99C35.62 5.21 33.9 3.76 31.78 3.76L3.83 3.76C1.72 3.76 0 5.21 0 6.99L0 7.47L0 7.47L0 23C0 24.78 1.72 26.23 3.83 26.23L31.78 26.23C33.9 26.23 35.62 24.78 35.62 23L35.62 7.47C35.62 7.47 35.62 7.47 35.62 7.47ZM3.83 5.52L31.78 5.52C32.75 5.52 33.53 6.18 33.53 6.99L33.53 6.99L19.55 14.84C18.62 15.36 16.99 15.36 16.06 14.84L2.08 6.99L2.08 6.99C2.08 6.18 2.87 5.52 3.83 5.52ZM31.78 24.47L3.83 24.47C2.87 24.47 2.08 23.81 2.08 23L2.08 9.11L14.9 16.3C15.72 16.76 16.76 16.99 17.81 16.99C18.85 16.99 19.9 16.76 20.71 16.3L33.53 9.11L33.53 23C33.53 23.81 32.75 24.47 31.78 24.47Z" fill="#041E42" fill-opacity="1.000000" fill-rule="nonzero"/>
	</g>
</svg>
