<svg width="20" height="20" viewBox="0 0 20 20" fill="none" xmlns="http://www.w3.org/2000/svg">
<rect width="20" height="20" fill="#E5E5E5"/>
<rect width="1920" height="3070" transform="translate(-1670 -35)" fill="white"/>
<rect x="-18" y="-15" width="50" height="50" rx="16" fill="#F3F5F6"/>
<g clip-path="url(#clip0_0_1)">
<path d="M9.41406 20H4.6875C2.10281 20 0 17.8972 0 15.3125V4.6875C0 2.10281 2.10281 0 4.6875 0H9.41406C11.9987 0 14.1016 2.10281 14.1016 4.6875V5.46875C14.1016 5.90023 13.7518 6.25 13.3203 6.25C12.8888 6.25 12.5391 5.90023 12.5391 5.46875V4.6875C12.5391 2.96438 11.1372 1.5625 9.41406 1.5625H4.6875C2.96438 1.5625 1.5625 2.96438 1.5625 4.6875V15.3125C1.5625 17.0356 2.96438 18.4375 4.6875 18.4375H9.41406C11.1372 18.4375 12.5391 17.0356 12.5391 15.3125V14.5312C12.5391 14.0998 12.8888 13.75 13.3203 13.75C13.7518 13.75 14.1016 14.0998 14.1016 14.5312V15.3125C14.1016 17.8972 11.9987 20 9.41406 20Z" fill="#041E42"/>
<path d="M16.9531 13.75C16.7528 13.75 16.5526 13.6734 16.4 13.5204C16.0953 13.2149 16.0959 12.7202 16.4014 12.4155L18.2096 10.6122C18.3566 10.4657 18.4375 10.2711 18.4375 10.0644C18.4375 9.85832 18.3571 9.66441 18.2113 9.51812L16.4057 7.74488C16.0979 7.44254 16.0934 6.94793 16.3957 6.64008C16.698 6.33226 17.1927 6.32777 17.5005 6.63008L19.3087 8.4059C19.3101 8.40726 19.3114 8.40863 19.3129 8.41004C19.7559 8.8518 20 9.43933 20 10.0644C19.9999 10.6894 19.7559 11.2769 19.3128 11.7187L17.5048 13.5219C17.3523 13.6739 17.1527 13.75 16.9531 13.75ZM16.9141 9.99996C16.9141 9.56847 16.5643 9.21871 16.1328 9.21871H7.69531C7.26383 9.21871 6.91406 9.56847 6.91406 9.99996C6.91406 10.4314 7.26383 10.7812 7.69531 10.7812H16.1328C16.5643 10.7812 16.9141 10.4314 16.9141 9.99996Z" fill="#041E42"/>
</g>
<defs>
<clipPath id="clip0_0_1">
<rect width="20" height="20" fill="white"/>
</clipPath>
</defs>
</svg>
