<svg width="33.000000" height="35.000000" viewBox="0 0 33 35" fill="none" xmlns="http://www.w3.org/2000/svg" xmlns:xlink="http://www.w3.org/1999/xlink">
	<desc>
			Created with Pixso.
	</desc>
	<defs>
		<clipPath id="clip1_863">
			<rect width="33.000000" height="35.000000" fill="white" fill-opacity="0"/>
		</clipPath>
	</defs>
	<rect width="33.000000" height="35.000000" fill="#FFFFFF" fill-opacity="0"/>
	<g clip-path="url(#clip1_863)">
		<path d="M30.51 9.49L30.51 9.46C30.5 9.13 30.49 8.77 30.48 8.38C30.46 6.45 29.01 4.85 27.19 4.74C23.39 4.52 20.46 3.21 17.95 0.61L17.93 0.59C17.11 -0.2 15.88 -0.2 15.06 0.59L15.04 0.61C12.53 3.21 9.6 4.52 5.8 4.74C3.98 4.85 2.54 6.45 2.51 8.38C2.5 8.77 2.49 9.13 2.48 9.46L2.48 9.53C2.4 13.63 2.31 18.74 3.92 23.37C4.81 25.92 6.15 28.14 7.91 29.96C9.91 32.03 12.54 33.68 15.71 34.85C15.81 34.89 15.92 34.92 16.03 34.95C16.18 34.98 16.34 35 16.5 35C16.65 35 16.81 34.98 16.96 34.95C17.07 34.92 17.18 34.89 17.28 34.85C20.45 33.68 23.07 32.03 25.07 29.96C26.83 28.13 28.17 25.92 29.06 23.37C30.68 18.72 30.59 13.6 30.51 9.49ZM27.24 22.66C25.54 27.54 22.08 30.9 16.64 32.91C16.62 32.92 16.6 32.93 16.58 32.93C16.52 32.94 16.47 32.94 16.41 32.93C16.39 32.93 16.37 32.92 16.35 32.91C10.91 30.9 7.44 27.55 5.74 22.66C4.25 18.39 4.34 13.7 4.41 9.57L4.41 9.54C4.43 9.19 4.44 8.82 4.44 8.41C4.46 7.55 5.1 6.84 5.91 6.79C8.06 6.67 9.94 6.23 11.68 5.45C13.41 4.67 14.94 3.58 16.38 2.1C16.45 2.03 16.54 2.03 16.62 2.1C18.05 3.58 19.58 4.67 21.31 5.45C23.05 6.23 24.93 6.67 27.08 6.79C27.89 6.84 28.53 7.55 28.55 8.41C28.55 8.82 28.56 9.19 28.58 9.54C28.65 13.68 28.73 18.38 27.24 22.66Z" fill="#041E42" fill-opacity="1.000000" fill-rule="nonzero"/>
		<path d="M16.49 8.77C11.96 8.77 8.27 12.69 8.27 17.5C8.27 22.31 11.96 26.22 16.49 26.22C21.03 26.22 24.72 22.31 24.72 17.5C24.72 12.69 21.03 8.77 16.49 8.77ZM16.49 24.16C13.03 24.16 10.21 21.17 10.21 17.5C10.21 13.82 13.03 10.83 16.49 10.83C19.96 10.83 22.78 13.82 22.78 17.5C22.78 21.17 19.96 24.16 16.49 24.16Z" fill="#041E42" fill-opacity="1.000000" fill-rule="nonzero"/>
		<path d="M18.86 14.79L15.04 18.84L14 17.74C13.62 17.34 13.01 17.34 12.63 17.74C12.25 18.14 12.25 18.79 12.63 19.19L14.35 21.02C14.54 21.22 14.79 21.32 15.04 21.32C15.29 21.32 15.53 21.22 15.72 21.02L20.23 16.24C20.61 15.84 20.61 15.19 20.23 14.79C19.85 14.39 19.24 14.39 18.86 14.79Z" fill="#041E42" fill-opacity="1.000000" fill-rule="nonzero"/>
	</g>
</svg>
