<svg width="33.000000" height="35.000000" viewBox="0 0 33 35" fill="none" xmlns="http://www.w3.org/2000/svg" xmlns:xlink="http://www.w3.org/1999/xlink">
	<desc>
			Created with Pixso.
	</desc>
	<defs>
		<clipPath id="clip1_872">
			<rect id="headphones 1" width="33.000000" height="35.000000" fill="white" fill-opacity="0"/>
		</clipPath>
	</defs>
	<rect id="headphones 1" width="33.000000" height="35.000000" fill="#FFFFFF" fill-opacity="0"/>
	<g clip-path="url(#clip1_872)">
		<path id="Vector" d="M16.5 0C8.5 0 1.99 6.89 1.99 15.38C1.99 16.32 1.99 23.59 1.99 23.72C1.99 25.41 3.29 26.79 4.89 26.79L6.03 26.79C6.43 27.99 7.5 28.84 8.76 28.84C10.36 28.84 11.66 27.46 11.66 25.77L11.66 17.43C11.66 15.73 10.36 14.35 8.76 14.35C7.5 14.35 6.43 15.21 6.03 16.4L4.89 16.4C4.55 16.4 4.23 16.46 3.93 16.58L3.93 15.38C3.93 8.03 9.56 2.05 16.5 2.05C23.43 2.05 29.06 8.03 29.06 15.38L29.06 16.58C28.76 16.46 28.44 16.4 28.1 16.4L26.96 16.4C26.56 15.21 25.49 14.35 24.23 14.35C22.63 14.35 21.33 15.73 21.33 17.43L21.33 25.77C21.33 27.46 22.63 28.84 24.23 28.84C24.52 28.84 24.8 28.8 25.07 28.71C24.71 29.97 23.6 30.89 22.3 30.89L19.23 30.89C18.83 29.7 17.76 28.84 16.5 28.84C14.9 28.84 13.59 30.22 13.59 31.92C13.59 33.62 14.9 35 16.5 35C17.76 35 18.83 34.14 19.23 32.94L22.3 32.94C24.96 32.94 27.13 30.64 27.13 27.82L27.13 26.79L28.1 26.79C29.7 26.79 31 25.41 31 23.72C31 23.59 31 16.32 31 15.38C31 6.89 24.49 0 16.5 0ZM7.79 17.43C7.79 16.86 8.23 16.4 8.76 16.4C9.29 16.4 9.73 16.86 9.73 17.43L9.73 25.77C9.73 26.33 9.29 26.79 8.76 26.79C8.23 26.79 7.79 26.33 7.79 25.77L7.79 17.43ZM4.89 18.45L5.86 18.45L5.86 24.74L4.89 24.74C4.36 24.74 3.93 24.28 3.93 23.72L3.93 19.48C3.93 18.91 4.36 18.45 4.89 18.45ZM16.5 32.94C15.96 32.94 15.53 32.48 15.53 31.92C15.53 31.35 15.96 30.89 16.5 30.89C17.03 30.89 17.46 31.35 17.46 31.92C17.46 32.48 17.03 32.94 16.5 32.94ZM25.2 25.77C25.2 26.33 24.76 26.79 24.23 26.79C23.7 26.79 23.26 26.33 23.26 25.77L23.26 17.43C23.26 16.86 23.7 16.4 24.23 16.4C24.76 16.4 25.2 16.86 25.2 17.43L25.2 25.77ZM29.06 23.72C29.06 24.28 28.63 24.74 28.1 24.74L27.13 24.74L27.13 18.45L28.1 18.45C28.63 18.45 29.06 18.91 29.06 19.48L29.06 23.72Z" fill="#041E42" fill-opacity="1.000000" fill-rule="nonzero"/>
	</g>
</svg>
