<svg width="14.543396" height="11.488281" viewBox="0 0 14.5434 11.4883" fill="none" xmlns="http://www.w3.org/2000/svg" xmlns:xlink="http://www.w3.org/1999/xlink">
	<desc>
			Created with Pixso.
	</desc>
	<defs/>
	<path id="Vector" d="M10.54 0C12.75 0 14.54 1.55 14.54 3.72C14.54 8.07 9.08 10.55 7.27 11.48C5.45 10.55 0 8.07 0 3.72C0 1.55 1.81 0 3.99 0C5.35 0 6.54 0.62 7.27 1.24C7.99 0.62 9.19 0 10.54 0ZM7.95 9.69C8.59 9.34 9.16 9 9.71 8.63C11.87 7.16 13.08 5.55 13.08 3.72C13.08 2.26 11.97 1.24 10.54 1.24C9.76 1.24 8.91 1.59 8.29 2.12L7.27 2.99L6.24 2.12C5.62 1.59 4.78 1.24 3.99 1.24C2.58 1.24 1.45 2.27 1.45 3.72C1.45 5.55 2.66 7.16 4.83 8.63C5.37 9 5.95 9.34 6.59 9.68C6.8 9.8 7.02 9.91 7.27 10.04C7.51 9.91 7.73 9.8 7.95 9.69Z" fill="#041E42" fill-opacity="1.000000" fill-rule="nonzero"/>
</svg>
