<svg width="17.668457" height="14.533203" viewBox="0 0 17.6685 14.5332" fill="none" xmlns="http://www.w3.org/2000/svg" xmlns:xlink="http://www.w3.org/1999/xlink">
	<desc>
			Created with Pixso.
	</desc>
	<defs/>
	<path d="M12.8 0C15.49 0 17.66 1.96 17.66 4.71C17.66 10.21 11.04 13.35 8.83 14.53C6.62 13.35 0 10.21 0 4.71C0 1.96 2.2 0 4.85 0C6.5 0 7.95 0.78 8.83 1.57C9.71 0.78 11.16 0 12.8 0ZM9.65 12.25C10.43 11.82 11.14 11.38 11.79 10.92C14.43 9.05 15.9 7.02 15.9 4.71C15.9 2.85 14.54 1.57 12.8 1.57C11.85 1.57 10.83 2.01 10.08 2.68L8.83 3.79L7.58 2.68C6.83 2.01 5.8 1.57 4.85 1.57C3.14 1.57 1.76 2.87 1.76 4.71C1.76 7.02 3.23 9.05 5.87 10.92C6.52 11.38 7.23 11.82 8 12.25C8.27 12.4 8.53 12.54 8.83 12.7C9.13 12.54 9.39 12.4 9.65 12.25Z" fill="#FFFFFF" fill-opacity="1.000000" fill-rule="nonzero"/>
</svg>
