<svg width="80.125000" height="80.000000" viewBox="0 0 80.125 80" fill="none" xmlns="http://www.w3.org/2000/svg" xmlns:xlink="http://www.w3.org/1999/xlink">
	<desc>
			Created with Pixso.
	</desc>
	<defs/>
	<ellipse id="Ellipse 37" cx="40.062500" cy="40.000000" rx="40.062500" ry="40.000000" fill="#443297" fill-opacity="1.000000"/>
	<path id="" d="M52.54 34.83C52.84 35.13 53.01 35.55 53.01 35.97C53.01 36.39 52.84 36.81 52.54 37.11L40.42 49.23L38.14 51.51C37.84 51.81 37.42 51.97 37 51.97C36.58 51.97 36.17 51.81 35.87 51.51L33.59 49.23L27.53 43.17C27.23 42.87 27.06 42.45 27.06 42.03C27.06 41.61 27.23 41.19 27.53 40.89L29.8 38.62C30.11 38.31 30.52 38.15 30.94 38.15C31.36 38.15 31.78 38.31 32.08 38.62L37 43.55L47.99 32.56C48.29 32.25 48.71 32.09 49.12 32.09C49.54 32.09 49.96 32.25 50.26 32.56L52.54 34.83Z" fill="#FFFFFF" fill-opacity="1.000000" fill-rule="evenodd"/>
</svg>
