<svg width="33.000000" height="35.000000" viewBox="0 0 33 35" fill="none" xmlns="http://www.w3.org/2000/svg" xmlns:xlink="http://www.w3.org/1999/xlink">
	<desc>
			Created with Pixso.
	</desc>
	<defs>
		<clipPath id="clip1_880">
			<rect width="33.000000" height="35.000000" fill="white" fill-opacity="0"/>
		</clipPath>
	</defs>
	<rect width="33.000000" height="35.000000" fill="#FFFFFF" fill-opacity="0"/>
	<g clip-path="url(#clip1_880)">
		<path d="M32.94 19.83L30.43 4.76C30.09 2.71 28.25 1.34 26.32 1.7L4.83 5.72C2.9 6.08 1.61 8.04 1.95 10.09L2.13 11.19C0.88 11.78 0 13.11 0 14.65L0 29.58C0 31.65 1.59 33.35 3.55 33.35L24.88 33.35C26.84 33.35 28.43 31.65 28.43 29.58L28.43 24.5L30.06 24.2C30.99 24.02 31.81 23.47 32.35 22.64C32.9 21.82 33.1 20.82 32.94 19.83ZM30.76 21.46C30.52 21.84 30.14 22.09 29.72 22.17L28.43 22.41L28.43 21.24L28.43 16.57L28.43 14.65C28.43 12.57 26.84 10.88 24.88 10.88L4.05 10.88L3.86 9.73C3.78 9.28 3.88 8.83 4.13 8.45C4.37 8.08 4.74 7.82 5.17 7.75L26.65 3.73C26.75 3.71 26.84 3.7 26.94 3.7C27.7 3.7 28.39 4.29 28.53 5.12L31.03 20.18C31.11 20.64 31.01 21.09 30.76 21.46ZM24.88 31.29L3.55 31.29C2.66 31.29 1.93 30.52 1.93 29.58L1.93 22.27L26.49 22.27L26.49 29.58C26.49 30.52 25.77 31.29 24.88 31.29ZM3.55 12.94L24.88 12.94C25.77 12.94 26.49 13.71 26.49 14.65L26.49 15.55L1.93 15.55L1.93 14.65C1.93 13.71 2.66 12.94 3.55 12.94ZM26.49 17.6L26.49 20.21L1.93 20.21L1.93 17.6L26.49 17.6Z" fill="#041E42" fill-opacity="1.000000" fill-rule="nonzero"/>
		<path d="M9.32 27.16L4.93 27.16C4.39 27.16 3.96 27.62 3.96 28.19C3.96 28.76 4.39 29.22 4.93 29.22L9.32 29.22C9.86 29.22 10.29 28.76 10.29 28.19C10.29 27.62 9.86 27.16 9.32 27.16Z" fill="#041E42" fill-opacity="1.000000" fill-rule="nonzero"/>
	</g>
</svg>
