<svg width="35.815918" height="22.971191" viewBox="0 0 35.8159 22.9712" fill="none" xmlns="http://www.w3.org/2000/svg" xmlns:xlink="http://www.w3.org/1999/xlink">
	<desc>
			Created with Pixso.
	</desc>
	<defs>
		<clipPath id="clip1_794">
			<rect id="5" width="35.816044" height="22.971428" fill="white" fill-opacity="0"/>
		</clipPath>
	</defs>
	<rect id="5" width="35.816044" height="22.971428" fill="#FFFFFF" fill-opacity="0"/>
	<g clip-path="url(#clip1_794)">
		<path id="Vector" d="M32.98 0L2.82 0C1.22 0 0 1.24 0 2.87L0 20.1C0 21.72 1.31 22.97 2.82 22.97L32.98 22.97C34.59 22.97 35.81 21.72 35.81 20.1L35.81 2.87C35.81 1.24 34.49 0 32.98 0Z" fill="#F3F5F6" fill-opacity="1.000000" fill-rule="nonzero"/>
		<path id="Vector" d="M32.98 0.95C34.02 0.95 34.87 1.81 34.87 2.87L34.87 20.1C34.87 21.15 34.02 22.01 32.98 22.01L2.82 22.01C1.79 22.01 0.94 21.15 0.94 20.1L0.94 2.87C0.94 1.81 1.79 0.95 2.82 0.95L32.98 0.95Z" fill="#FFFFFF" fill-opacity="1.000000" fill-rule="nonzero"/>
		<path id="Vector" d="M22.52 7.94C22.71 6.98 22.52 6.31 21.96 5.74C21.39 5.07 20.35 4.78 19.03 4.78L15.17 4.78C14.89 4.78 14.7 4.97 14.6 5.26L13.19 14.93C13.19 15.12 13.29 15.31 13.47 15.31L16.02 15.31L16.4 12.06L18.09 9.95L22.52 7.94Z" fill="#003087" fill-opacity="1.000000" fill-rule="nonzero"/>
		<path id="Vector" d="M22.52 7.94L22.33 8.13C21.86 10.81 20.26 11.77 18 11.77L16.96 11.77C16.68 11.77 16.49 11.96 16.39 12.25L15.83 15.98L15.64 16.94C15.64 17.13 15.74 17.32 15.92 17.32L17.9 17.32C18.19 17.32 18.37 17.13 18.37 16.94L18.37 16.84L18.75 14.54L18.75 14.45C18.75 14.26 19.03 14.06 19.22 14.06L19.51 14.06C21.48 14.06 22.99 13.3 23.37 11C23.56 10.05 23.46 9.28 22.99 8.7C22.9 8.23 22.71 8.04 22.52 7.94Z" fill="#3086C8" fill-opacity="1.000000" fill-rule="nonzero"/>
		<path id="Vector" d="M21.96 7.75C21.86 7.65 21.77 7.65 21.67 7.65C21.58 7.65 21.48 7.65 21.39 7.56C21.11 7.46 20.73 7.46 20.35 7.46L17.53 7.46C17.43 7.46 17.34 7.46 17.34 7.56C17.15 7.65 17.05 7.75 17.05 7.94L16.39 12.15L16.39 12.25C16.39 11.96 16.68 11.77 16.96 11.77L18.19 11.77C20.54 11.77 22.05 10.81 22.52 8.13L22.52 7.94C22.43 7.84 22.24 7.75 22.05 7.75L21.96 7.75Z" fill="#012169" fill-opacity="1.000000" fill-rule="nonzero"/>
	</g>
</svg>
