<svg width="35.625000" height="30.000000" viewBox="0 0 35.625 30" fill="none" xmlns="http://www.w3.org/2000/svg" xmlns:xlink="http://www.w3.org/1999/xlink">
	<desc>
			Created with Pixso.
	</desc>
	<defs>
		<clipPath id="clip1_846">
			<rect width="35.625000" height="30.000000" fill="white" fill-opacity="0"/>
		</clipPath>
	</defs>
	<rect width="35.625000" height="30.000000" fill="#FFFFFF" fill-opacity="0"/>
	<g clip-path="url(#clip1_846)">
		<path d="M30.68 22.76L25.28 19.77C24 19.06 22.33 19.12 21.13 19.92C20.08 20.63 18.58 20.55 17.63 19.76L12.15 15.14C11.21 14.35 11.12 13.08 11.95 12.19C12.91 11.19 12.98 9.78 12.14 8.7L8.59 4.16C7.97 3.36 7.01 2.89 5.88 2.82C4.76 2.75 3.72 3.1 2.97 3.81C-1.18 7.75 -0.97 13.76 3.46 17.48L14.85 27.08C17.16 29.02 20.19 30 23.23 30C26.03 30 28.84 29.16 31.08 27.49C31.93 26.85 32.35 25.98 32.27 25.04C32.19 24.09 31.62 23.28 30.68 22.76ZM29.7 26.17C25.85 29.05 19.98 28.9 16.33 25.83L4.93 16.24C1.29 13.17 1.11 8.22 4.54 4.98C4.83 4.71 5.19 4.57 5.61 4.57C5.65 4.57 5.69 4.57 5.73 4.57C6.21 4.6 6.58 4.79 6.85 5.12L10.39 9.67C10.75 10.12 10.72 10.68 10.32 11.1C8.83 12.68 8.98 14.96 10.68 16.39L16.16 21C17.85 22.43 20.55 22.56 22.43 21.3C22.93 20.97 23.6 20.94 24.14 21.24L29.53 24.22L29.53 24.22C29.93 24.45 30.15 24.76 30.19 25.16C30.22 25.56 30.06 25.9 29.7 26.17Z" fill="#041E42" fill-opacity="1.000000" fill-rule="nonzero"/>
		<path d="M35.31 0.25C35.12 0.09 34.85 0 34.58 0L28.28 0C27.7 0 27.24 0.39 27.24 0.87C27.24 1.36 27.7 1.75 28.28 1.75L32.06 1.75L20.41 11.59C20 11.93 20 12.49 20.41 12.83C20.62 13 20.88 13.09 21.15 13.09C21.42 13.09 21.68 13 21.89 12.83L33.53 3L33.53 6.18C33.53 6.66 34 7.05 34.58 7.05L34.58 7.05C35.15 7.05 35.62 6.66 35.62 6.18L35.62 0.87C35.62 0.64 35.51 0.42 35.31 0.25Z" fill="#041E42" fill-opacity="1.000000" fill-rule="nonzero"/>
	</g>
</svg>
