<svg width="21.362793" height="20.000000" viewBox="0 0 21.3628 20" fill="none" xmlns="http://www.w3.org/2000/svg" xmlns:xlink="http://www.w3.org/1999/xlink">
	<desc>
			Created with Pixso.
	</desc>
	<defs>
		<clipPath id="clip2_1727">
			<rect id="Frame 2" width="100.000000" height="100.000000" transform="translate(-28.919922 -34.000000)" fill="white" fill-opacity="0"/>
		</clipPath>
		<clipPath id="clip7_3840">
			<rect id="profile 1" width="21.363007" height="20.000000" fill="white" fill-opacity="0"/>
		</clipPath>
	</defs>
	<rect id="profile 1" width="21.363007" height="20.000000" fill="#FFFFFF" fill-opacity="0"/>
	<g clip-path="url(#clip7_3840)">
		<rect id="Frame 2" width="100.000000" height="100.000000" transform="translate(-28.919922 -34.000000)" fill="#FFFFFF" fill-opacity="1.000000"/>
		<g clip-path="url(#clip2_1727)">
			<path id="Vector" d="M10.68 9.16C11.56 9.16 12.42 8.92 13.15 8.46C13.88 8 14.45 7.35 14.79 6.59C15.13 5.83 15.21 4.99 15.04 4.18C14.87 3.37 14.45 2.63 13.82 2.05C13.2 1.47 12.41 1.07 11.54 0.91C10.68 0.75 9.79 0.83 8.97 1.15C8.16 1.46 7.47 2 6.98 2.68C6.49 3.37 6.23 4.17 6.23 5C6.23 6.1 6.7 7.16 7.53 7.94C8.37 8.72 9.5 9.16 10.68 9.16ZM10.68 2.5C11.2 2.5 11.72 2.64 12.16 2.92C12.6 3.19 12.94 3.58 13.14 4.04C13.35 4.5 13.4 5 13.3 5.48C13.19 5.97 12.94 6.41 12.56 6.76C12.19 7.11 11.72 7.35 11.2 7.45C10.68 7.54 10.14 7.49 9.65 7.3C9.17 7.12 8.75 6.79 8.46 6.38C8.16 5.97 8.01 5.49 8.01 5C8.01 4.33 8.29 3.7 8.79 3.23C9.29 2.76 9.97 2.5 10.68 2.5ZM2.67 18.33L2.67 15C2.67 13.89 3.14 12.83 3.97 12.05C4.81 11.27 5.94 10.83 7.12 10.83L14.24 10.83C15.42 10.83 16.55 11.27 17.38 12.05C18.22 12.83 18.69 13.89 18.69 15L18.69 18.33C18.69 18.55 18.59 18.76 18.43 18.92C18.26 19.07 18.03 19.16 17.8 19.16C17.56 19.16 17.33 19.07 17.17 18.92C17 18.76 16.91 18.55 16.91 18.33L16.91 15C16.91 14.33 16.63 13.7 16.13 13.23C15.62 12.76 14.95 12.5 14.24 12.5L7.12 12.5C6.41 12.5 5.73 12.76 5.23 13.23C4.73 13.7 4.45 14.33 4.45 15L4.45 18.33C4.45 18.55 4.35 18.76 4.18 18.92C4.02 19.07 3.79 19.16 3.56 19.16C3.32 19.16 3.09 19.07 2.93 18.92C2.76 18.76 2.67 18.55 2.67 18.33Z" fill="#FFFFFF" fill-opacity="1.000000" fill-rule="nonzero"/>
		</g>
	</g>
</svg>
