<svg width="24.000000" height="24.000000" viewBox="0 0 24 24" fill="none" xmlns="http://www.w3.org/2000/svg" xmlns:xlink="http://www.w3.org/1999/xlink">
	<desc>
			Created with Pixso.
	</desc>
	<defs>
		<clipPath id="clip1_1470">
			<rect id="return-box 1" width="24.000000" height="24.000000" fill="white" fill-opacity="0"/>
		</clipPath>
	</defs>
	<rect id="return-box 1" width="24.000000" height="24.000000" fill="#FFFFFF" fill-opacity="0"/>
	<g clip-path="url(#clip1_1470)">
		<path id="Vector" d="M2.87 14.06L3.25 14.06C3.51 14.06 3.71 13.85 3.71 13.59C3.71 13.33 3.51 13.12 3.25 13.12L2.87 13.12C2.61 13.12 2.4 13.33 2.4 13.59C2.4 13.85 2.61 14.06 2.87 14.06Z" fill="#041E42" fill-opacity="1.000000" fill-rule="nonzero"/>
		<path id="Vector" d="M7.97 14.06C8.22 14.06 8.43 13.85 8.43 13.59C8.43 13.33 8.22 13.12 7.97 13.12L5.12 13.12C4.86 13.12 4.65 13.33 4.65 13.59C4.65 13.85 4.86 14.06 5.12 14.06L7.97 14.06Z" fill="#041E42" fill-opacity="1.000000" fill-rule="nonzero"/>
		<path id="Vector" d="M2.87 16.28L7.97 16.28C8.22 16.28 8.43 16.07 8.43 15.81C8.43 15.55 8.22 15.34 7.97 15.34L2.87 15.34C2.61 15.34 2.4 15.55 2.4 15.81C2.4 16.07 2.61 16.28 2.87 16.28Z" fill="#041E42" fill-opacity="1.000000" fill-rule="nonzero"/>
		<path id="Vector" d="M18.4 9.69L18.4 1.82C18.4 0.98 17.72 0.3 16.88 0.3L1.52 0.3C0.68 0.3 0 0.98 0 1.82L0 7.4C0 7.66 0.2 7.87 0.46 7.87C0.72 7.87 0.93 7.66 0.93 7.4L0.93 1.82C0.93 1.5 1.2 1.24 1.52 1.24L5.87 1.24L5.87 7.32C5.87 7.49 5.96 7.64 6.11 7.73C6.26 7.81 6.44 7.81 6.58 7.72L9.2 6.1L11.81 7.72C12.12 7.91 12.53 7.68 12.53 7.32L12.53 1.24L16.88 1.24C17.2 1.24 17.47 1.5 17.47 1.82L17.47 9.55C17.28 9.54 17.1 9.53 16.91 9.53C13.01 9.53 9.83 12.7 9.83 16.61C9.83 17 9.86 17.39 9.92 17.77L1.52 17.77C1.2 17.77 0.93 17.5 0.93 17.18L0.93 11.61C0.93 11.35 0.72 11.14 0.46 11.14C0.2 11.14 0 11.35 0 11.61L0 17.18C0 18.02 0.68 18.7 1.52 18.7L10.15 18.7C11.04 21.59 13.74 23.69 16.91 23.69C20.82 23.69 24 20.51 24 16.61C24 13.22 21.6 10.37 18.4 9.69ZM11.59 6.48L9.44 5.15C9.29 5.06 9.1 5.06 8.95 5.15L6.81 6.48L6.81 1.24L11.59 1.24L11.59 6.48ZM16.91 22.75C13.52 22.75 10.77 20 10.77 16.61C10.77 13.22 13.52 10.47 16.91 10.47C20.3 10.47 23.06 13.22 23.06 16.61C23.06 20 20.3 22.75 16.91 22.75Z" fill="#041E42" fill-opacity="1.000000" fill-rule="nonzero"/>
		<path id="Vector" d="M17.76 13.89L15.97 13.89L16.81 13.06C16.99 12.88 16.99 12.58 16.81 12.4C16.63 12.21 16.33 12.21 16.15 12.4L14.51 14.03C14.33 14.21 14.33 14.52 14.51 14.69L16.15 16.33C16.24 16.42 16.36 16.47 16.48 16.47C16.6 16.47 16.72 16.42 16.81 16.33C16.99 16.15 16.99 15.85 16.81 15.67L15.97 14.83L17.76 14.83C18.9 14.83 19.82 15.75 19.82 16.89C19.82 18.02 18.9 18.95 17.76 18.95L13.53 18.95C13.28 18.95 13.07 19.16 13.07 19.41C13.07 19.67 13.28 19.88 13.53 19.88L17.76 19.88C19.41 19.88 20.76 18.54 20.76 16.89C20.76 15.24 19.41 13.89 17.76 13.89Z" fill="#041E42" fill-opacity="1.000000" fill-rule="nonzero"/>
		<path id="Vector" d="M0.46 9.97C0.72 9.97 0.93 9.76 0.93 9.5C0.93 9.24 0.72 9.03 0.46 9.03C0.2 9.03 0 9.24 0 9.5L0 9.5C0 9.76 0.2 9.97 0.46 9.97Z" fill="#041E42" fill-opacity="1.000000" fill-rule="nonzero"/>
	</g>
</svg>
