<svg width="19.923828" height="20.000000" viewBox="0 0 19.9238 20" fill="none" xmlns="http://www.w3.org/2000/svg" xmlns:xlink="http://www.w3.org/1999/xlink">
	<desc>
			Created with Pixso.
	</desc>
	<defs>
		<clipPath id="clip7_3857">
			<rect id="search 1" width="19.924021" height="20.000000" fill="white" fill-opacity="0"/>
		</clipPath>
	</defs>
	<rect id="search 1" width="19.924021" height="20.000000" fill="#FFFFFF" fill-opacity="0"/>
	<g clip-path="url(#clip7_3857)">
		<path id="circle2017" d="M9.08 1.6C4.96 1.6 1.61 4.97 1.61 9.1C1.61 13.24 4.96 16.61 9.08 16.61C10.83 16.61 12.45 15.99 13.73 14.96L16.84 18.08C17 18.24 17.21 18.32 17.43 18.32C17.64 18.31 17.85 18.23 18 18.07C18.16 17.92 18.25 17.71 18.25 17.49C18.25 17.27 18.17 17.06 18.02 16.9L14.91 13.78C15.93 12.5 16.55 10.87 16.55 9.1C16.55 4.97 13.19 1.6 9.08 1.6ZM9.08 3.27C12.3 3.27 14.89 5.87 14.89 9.1C14.89 12.33 12.3 14.94 9.08 14.94C5.86 14.94 3.27 12.33 3.27 9.1C3.27 5.87 5.86 3.27 9.08 3.27Z" fill="#443297" fill-opacity="1.000000" fill-rule="nonzero"/>
	</g>
</svg>
