<svg width="39.378906" height="40.000000" viewBox="0 0 39.3789 40" fill="none" xmlns="http://www.w3.org/2000/svg" xmlns:xlink="http://www.w3.org/1999/xlink">
	<desc>
			Created with Pixso.
	</desc>
	<defs>
		<clipPath id="clip1_1908">
			<rect id="shield 1" width="39.379307" height="40.000000" fill="white" fill-opacity="0"/>
		</clipPath>
	</defs>
	<rect id="shield 1" width="39.379307" height="40.000000" fill="#FFFFFF" fill-opacity="0"/>
	<g clip-path="url(#clip1_1908)">
		<path id="Vector" d="M36.41 10.85L36.41 10.82C36.39 10.43 36.38 10.03 36.38 9.57C36.34 7.37 34.62 5.54 32.45 5.42C27.92 5.16 24.42 3.66 21.42 0.7L21.4 0.68C20.42 -0.23 18.95 -0.23 17.97 0.68L17.95 0.7C14.95 3.66 11.45 5.16 6.92 5.42C4.75 5.54 3.03 7.37 2.99 9.57C2.99 10.02 2.98 10.43 2.96 10.82L2.96 10.89C2.87 15.58 2.76 21.41 4.68 26.71C5.74 29.63 7.34 32.16 9.44 34.24C11.83 36.61 14.96 38.49 18.75 39.83C18.87 39.88 19 39.91 19.13 39.94C19.32 39.98 19.5 40 19.69 40C19.87 40 20.06 39.98 20.24 39.94C20.37 39.91 20.5 39.88 20.62 39.83C24.4 38.49 27.53 36.61 29.92 34.24C32.02 32.15 33.62 29.62 34.68 26.71C36.61 21.39 36.5 15.55 36.41 10.85ZM32.51 25.9C30.48 31.48 26.35 35.31 19.86 37.62C19.84 37.62 19.81 37.63 19.79 37.64C19.72 37.65 19.65 37.65 19.58 37.64C19.56 37.63 19.53 37.62 19.51 37.62C13.02 35.32 8.88 31.49 6.85 25.9C5.08 21.02 5.18 15.66 5.27 10.93L5.27 10.91C5.29 10.5 5.3 10.08 5.3 9.61C5.32 8.63 6.09 7.82 7.05 7.76C9.62 7.62 11.87 7.12 13.93 6.23C16 5.34 17.83 4.09 19.54 2.4C19.63 2.33 19.74 2.33 19.83 2.4C21.54 4.09 23.37 5.34 25.44 6.23C27.5 7.12 29.75 7.62 32.32 7.76C33.28 7.82 34.05 8.63 34.07 9.61C34.07 10.08 34.08 10.5 34.1 10.91C34.19 15.64 34.29 21 32.51 25.9Z" fill="#041E42" fill-opacity="1.000000" fill-rule="nonzero"/>
		<path id="Vector" d="M19.68 10.03C14.27 10.03 9.87 14.5 9.87 20C9.87 25.49 14.27 29.96 19.68 29.96C25.1 29.96 29.5 25.49 29.5 20C29.5 14.5 25.1 10.03 19.68 10.03ZM19.68 27.62C15.55 27.62 12.18 24.2 12.18 20C12.18 15.79 15.55 12.37 19.68 12.37C23.82 12.37 27.19 15.79 27.19 20C27.19 24.2 23.82 27.62 19.68 27.62Z" fill="#041E42" fill-opacity="1.000000" fill-rule="nonzero"/>
		<path id="Vector" d="M22.5 16.9L17.95 21.53L16.71 20.27C16.26 19.82 15.53 19.82 15.08 20.27C14.62 20.73 14.62 21.48 15.08 21.93L17.13 24.02C17.36 24.25 17.65 24.36 17.95 24.36C18.24 24.36 18.54 24.25 18.76 24.02L24.14 18.56C24.59 18.1 24.59 17.36 24.14 16.9C23.69 16.44 22.96 16.44 22.5 16.9Z" fill="#041E42" fill-opacity="1.000000" fill-rule="nonzero"/>
	</g>
</svg>
