<svg width="24.000000" height="24.000000" viewBox="0 0 24 24" fill="none" xmlns="http://www.w3.org/2000/svg" xmlns:xlink="http://www.w3.org/1999/xlink">
	<desc>
			Created with Pixso.
	</desc>
	<defs>
		<clipPath id="clip1_1465">
			<rect width="24.000000" height="24.000000" fill="white" fill-opacity="0"/>
		</clipPath>
	</defs>
	<rect width="24.000000" height="24.000000" fill="#FFFFFF" fill-opacity="0"/>
	<g clip-path="url(#clip1_1465)">
		<path d="M22.29 7.23L22.29 7.23L20.71 2.97C20.6 2.69 20.41 2.44 20.16 2.26C19.9 2.09 19.61 2 19.3 2L4.69 2C4.38 2 4.09 2.09 3.83 2.26C3.58 2.44 3.39 2.69 3.28 2.97L1.7 7.23C1.5 7.76 1.48 8.32 1.65 8.81C1.79 9.25 2.03 9.64 2.35 9.97C2.67 10.3 3.06 10.55 3.5 10.7L3.5 19.5C3.5 20.16 3.76 20.79 4.23 21.26C4.7 21.73 5.33 21.99 6 22L18 22C18.66 21.99 19.29 21.73 19.76 21.26C20.23 20.79 20.49 20.16 20.5 19.5L20.5 10.7C20.93 10.55 21.32 10.3 21.64 9.97C21.96 9.64 22.2 9.25 22.34 8.81C22.51 8.32 22.49 7.76 22.29 7.23ZM16.44 6.74C16.48 6.94 16.5 7.14 16.5 7.34L16.5 7.87C16.5 8.13 16.45 8.39 16.35 8.64C16.25 8.88 16.1 9.1 15.91 9.29C15.73 9.48 15.51 9.62 15.26 9.73C15.02 9.83 14.76 9.88 14.5 9.88C14.23 9.88 13.97 9.83 13.73 9.73C13.48 9.62 13.26 9.48 13.08 9.29C12.89 9.1 12.74 8.88 12.64 8.64C12.54 8.39 12.49 8.13 12.5 7.87L12.5 3L15.78 3L16.44 6.74ZM7.5 7.34C7.49 7.14 7.51 6.94 7.55 6.74L8.21 3L11.5 3L11.5 7.87C11.5 8.13 11.44 8.39 11.34 8.64C11.24 8.88 11.1 9.1 10.91 9.28C10.72 9.47 10.5 9.62 10.26 9.72C10.02 9.82 9.76 9.87 9.5 9.87C9.23 9.87 8.97 9.82 8.73 9.72C8.49 9.62 8.27 9.47 8.08 9.28C7.9 9.1 7.75 8.88 7.65 8.64C7.55 8.39 7.5 8.13 7.5 7.87L7.5 7.34ZM2.6 8.5C2.5 8.22 2.52 7.9 2.64 7.58L4.22 3.32C4.26 3.23 4.32 3.14 4.4 3.08C4.49 3.03 4.59 3 4.69 3L7.19 3L6.56 6.56C6.52 6.82 6.5 7.08 6.5 7.35L6.5 7.87C6.49 8.34 6.33 8.8 6.02 9.17C5.71 9.53 5.28 9.77 4.81 9.84C4.34 9.92 3.86 9.83 3.46 9.58C3.05 9.33 2.75 8.95 2.6 8.5ZM19.5 19.5C19.49 19.89 19.34 20.27 19.06 20.56C18.77 20.84 18.39 20.99 18 21L6 21C5.6 20.99 5.22 20.84 4.93 20.56C4.65 20.27 4.5 19.89 4.5 19.5L4.5 10.87C4.99 10.87 5.48 10.75 5.91 10.51C6.35 10.28 6.72 9.94 6.99 9.53C7.27 9.94 7.64 10.28 8.08 10.51C8.51 10.75 9 10.87 9.5 10.87C9.99 10.87 10.48 10.75 10.91 10.51C11.35 10.28 11.72 9.94 12 9.53C12.27 9.94 12.64 10.28 13.08 10.51C13.51 10.75 14 10.87 14.5 10.87C14.99 10.87 15.48 10.75 15.91 10.51C16.35 10.28 16.72 9.94 17 9.53C17.27 9.94 17.64 10.28 18.08 10.51C18.51 10.75 19 10.87 19.5 10.87L19.5 19.5ZM21.39 8.5C21.24 8.95 20.94 9.33 20.53 9.58C20.13 9.83 19.65 9.92 19.18 9.84C18.71 9.77 18.28 9.53 17.97 9.17C17.66 8.8 17.5 8.34 17.5 7.87L17.5 7.34C17.5 7.08 17.47 6.82 17.43 6.56L16.8 3L19.3 3C19.4 3 19.5 3.03 19.59 3.08C19.67 3.14 19.73 3.23 19.77 3.32L21.35 7.58C21.47 7.9 21.49 8.22 21.39 8.5Z" fill="#041E42" fill-opacity="1.000000" fill-rule="nonzero"/>
		<path d="M16.18 14.22L13.7 13.68L12.43 11.49C12.38 11.42 12.32 11.36 12.24 11.31C12.17 11.27 12.08 11.25 12 11.25C11.91 11.25 11.82 11.27 11.75 11.31C11.67 11.36 11.61 11.42 11.56 11.49L10.29 13.68L7.81 14.22C7.73 14.24 7.65 14.28 7.59 14.33C7.52 14.39 7.47 14.47 7.44 14.55C7.42 14.63 7.41 14.72 7.43 14.81C7.45 14.89 7.49 14.97 7.55 15.04L9.23 16.93L8.98 19.45C8.97 19.53 8.98 19.62 9.02 19.7C9.06 19.78 9.11 19.85 9.18 19.9C9.25 19.95 9.34 19.98 9.42 19.99C9.51 20 9.6 19.99 9.68 19.95L12 18.93L14.31 19.95C14.39 19.99 14.48 20 14.57 19.99C14.65 19.98 14.74 19.95 14.81 19.9C14.88 19.85 14.93 19.78 14.97 19.7C15.01 19.62 15.02 19.53 15.01 19.44L14.76 16.93L16.44 15.04C16.5 14.97 16.54 14.89 16.56 14.81C16.58 14.72 16.57 14.63 16.54 14.55C16.52 14.47 16.47 14.39 16.4 14.33C16.34 14.28 16.26 14.24 16.18 14.22L16.18 14.22ZM13.86 16.42C13.82 16.48 13.78 16.54 13.76 16.6C13.74 16.67 13.73 16.74 13.74 16.81L13.93 18.69L12.2 17.93C12.13 17.9 12.06 17.89 12 17.89C11.93 17.89 11.86 17.9 11.79 17.93L10.06 18.69L10.25 16.81C10.26 16.74 10.25 16.67 10.23 16.6C10.21 16.54 10.17 16.48 10.13 16.42L8.87 15.01L10.72 14.61C10.78 14.6 10.85 14.57 10.9 14.53C10.96 14.49 11.01 14.43 11.04 14.37L12 12.74L12.95 14.37C12.98 14.43 13.03 14.49 13.09 14.53C13.14 14.57 13.21 14.6 13.27 14.61L15.12 15.01L13.86 16.42Z" fill="#041E42" fill-opacity="1.000000" fill-rule="nonzero"/>
	</g>
</svg>
