<svg width="33.000000" height="35.000000" viewBox="0 0 33 35" fill="none" xmlns="http://www.w3.org/2000/svg" xmlns:xlink="http://www.w3.org/1999/xlink">
	<desc>
			Created with Pixso.
	</desc>
	<defs>
		<clipPath id="clip1_857">
			<rect width="33.000000" height="35.000000" fill="white" fill-opacity="0"/>
		</clipPath>
	</defs>
	<rect width="33.000000" height="35.000000" fill="#FFFFFF" fill-opacity="0"/>
	<g clip-path="url(#clip1_857)">
		<path d="M13.07 22.7L23.13 22.7C24.27 19.14 29.03 19.17 30.16 22.7L31 22.7L31 17.57C31 16.93 30.5 16.41 29.9 16.41C27.43 16.41 24.96 16.41 22.49 16.41C21.95 16.41 21.52 15.95 21.52 15.38L21.52 9.22L4.95 9.22L4.95 10.46L6.73 10.46C8 10.46 8 12.51 6.73 12.51L4.95 12.51L4.95 14.49L9.59 14.49C10.86 14.49 10.86 16.54 9.59 16.54L4.95 16.54L4.95 22.7L6.05 22.7C7.19 19.14 11.94 19.17 13.07 22.7ZM3.01 12.51L1.85 12.51C0.58 12.51 0.58 10.46 1.85 10.46L3.01 10.46L3.01 8.2C3.01 7.63 3.45 7.17 3.98 7.17C5.46 7.17 21.73 7.18 21.73 7.17C24.38 7.17 26.68 8.56 28.04 10.98L29.93 14.35C31.59 14.37 32.93 15.81 32.93 17.57L32.93 23.72C32.93 24.29 32.5 24.75 31.96 24.75L30.28 24.75C29.93 26.56 28.42 27.89 26.64 27.89C24.87 27.89 23.36 26.56 23.01 24.75L13.19 24.75C12.84 26.56 11.34 27.89 9.56 27.89C7.78 27.89 6.27 26.56 5.92 24.75L3.98 24.75C3.45 24.75 3.01 24.29 3.01 23.72L3.01 20.64L0.89 20.64C-0.39 20.64 -0.39 18.59 0.89 18.59L3.01 18.59L3.01 16.54L0.89 16.54C-0.39 16.54 -0.39 14.49 0.89 14.49L3.01 14.49L3.01 12.51ZM27.9 22.63C28.59 23.37 28.59 24.56 27.9 25.29C26.78 26.47 24.87 25.63 24.87 23.96C24.87 22.29 26.78 21.45 27.9 22.63ZM27.69 14.35L23.45 14.35L23.45 9.5C24.69 9.92 25.7 10.8 26.38 12.03L27.69 14.35ZM10.81 22.63C11.5 23.37 11.5 24.56 10.81 25.29C9.7 26.47 7.78 25.63 7.78 23.96C7.78 22.29 9.7 21.45 10.81 22.63Z" fill="#041E42" fill-opacity="1.000000" fill-rule="evenodd"/>
	</g>
</svg>
