<svg width="33.000000" height="20.720703" viewBox="0 0 33 20.7207" fill="none" xmlns="http://www.w3.org/2000/svg" xmlns:xlink="http://www.w3.org/1999/xlink">
	<desc>
			Created with Pixso.
	</desc>
	<defs/>
	<path id="Vector" d="M13.13 15.52L23.2 15.52C24.34 11.96 29.09 11.99 30.22 15.52L31.06 15.52L31.06 10.39C31.06 9.75 30.57 9.23 29.96 9.23C27.49 9.23 25.02 9.23 22.55 9.23C22.02 9.23 21.58 8.77 21.58 8.2L21.58 2.05L5.01 2.05L5.01 3.28L6.79 3.28C8.06 3.28 8.06 5.33 6.79 5.33L5.01 5.33L5.01 7.31L9.65 7.31C10.93 7.31 10.93 9.36 9.65 9.36L5.01 9.36L5.01 15.52L6.11 15.52C7.25 11.96 12.01 12 13.13 15.52ZM3.08 5.33L1.92 5.33C0.64 5.33 0.64 3.28 1.92 3.28L3.08 3.28L3.08 1.02C3.08 0.45 3.51 0 4.04 0C5.53 0 21.79 0 21.79 0C24.44 0 26.75 1.39 28.1 3.8L30 7.18C31.65 7.2 33 8.63 33 10.39L33 16.54C33 17.11 32.56 17.57 32.03 17.57L30.34 17.57C30 19.38 28.49 20.72 26.71 20.72C24.93 20.72 23.42 19.38 23.08 17.57L13.26 17.57C12.91 19.38 11.4 20.72 9.62 20.72C7.84 20.72 6.34 19.38 5.99 17.57L4.04 17.57C3.51 17.57 3.08 17.11 3.08 16.54L3.08 13.47L0.95 13.47C-0.32 13.47 -0.32 11.41 0.95 11.41L3.08 11.41L3.08 9.36L0.95 9.36C-0.32 9.36 -0.32 7.31 0.95 7.31L3.08 7.31L3.08 5.33ZM27.96 15.45C28.65 16.19 28.65 17.38 27.96 18.11C26.85 19.29 24.94 18.45 24.94 16.78C24.94 15.11 26.85 14.27 27.96 15.45ZM27.75 7.18L23.52 7.18L23.52 2.32C24.75 2.74 25.76 3.62 26.45 4.85L27.75 7.18ZM10.88 15.45C11.57 16.19 11.57 17.38 10.88 18.11C9.76 19.29 7.85 18.45 7.85 16.78C7.85 15.11 9.76 14.27 10.88 15.45Z" fill="#041E42" fill-opacity="1.000000" fill-rule="evenodd"/>
</svg>
