<svg width="10.945312" height="5.000000" viewBox="0 0 10.9453 5" fill="none" xmlns="http://www.w3.org/2000/svg" xmlns:xlink="http://www.w3.org/1999/xlink">
	<desc>
			Created with Pixso.
	</desc>
	<defs/>
	<path id="Vector" d="M5.89 4.86L10.77 1.07C10.88 0.98 10.94 0.87 10.94 0.74C10.94 0.62 10.88 0.5 10.77 0.41L10.41 0.13C10.17 -0.05 9.79 -0.05 9.56 0.13L5.47 3.32L1.38 0.13C1.26 0.04 1.11 0 0.95 0C0.79 0 0.64 0.04 0.53 0.13L0.17 0.41C0.06 0.5 0 0.61 0 0.74C0 0.86 0.06 0.98 0.17 1.07L5.04 4.86C5.16 4.95 5.31 5 5.47 5C5.63 5 5.78 4.95 5.89 4.86Z" fill="#041E42" fill-opacity="1.000000" fill-rule="nonzero"/>
</svg>
