<svg width="10.921875" height="10.000000" viewBox="0 0 10.9219 10" fill="none" xmlns="http://www.w3.org/2000/svg" xmlns:xlink="http://www.w3.org/1999/xlink">
	<desc>
			Created with Pixso.
	</desc>
	<defs>
		<clipPath id="clip195_1339">
			<rect id="star (1) 1" width="10.921928" height="10.000000" fill="white" fill-opacity="0"/>
		</clipPath>
	</defs>
	<rect id="star (1) 1" width="10.921928" height="10.000000" fill="#FFFFFF" fill-opacity="0"/>
	<g clip-path="url(#clip195_1339)">
		<path id="Vector" d="M10.89 3.83C10.82 3.63 10.62 3.49 10.39 3.47L7.24 3.2L5.99 0.53C5.9 0.34 5.69 0.21 5.46 0.21C5.22 0.21 5.01 0.34 4.92 0.53L3.68 3.2L0.52 3.47C0.29 3.49 0.1 3.63 0.02 3.83C-0.05 4.03 0.02 4.26 0.19 4.4L2.58 6.31L1.87 9.14C1.82 9.35 1.91 9.57 2.1 9.69C2.2 9.76 2.32 9.79 2.44 9.79C2.54 9.79 2.65 9.77 2.74 9.72L5.46 8.23L8.17 9.72C8.37 9.83 8.62 9.82 8.81 9.69C9 9.57 9.09 9.35 9.04 9.14L8.34 6.31L10.72 4.4C10.89 4.26 10.96 4.03 10.89 3.83Z" fill="#F5C34B" fill-opacity="1.000000" fill-rule="nonzero"/>
	</g>
</svg>
