<svg width="24.000000" height="24.000000" viewBox="0 0 24 24" fill="none" xmlns="http://www.w3.org/2000/svg" xmlns:xlink="http://www.w3.org/1999/xlink">
	<desc>
			Created with Pixso.
	</desc>
	<defs/>
	<path id="Vector" d="M18.4 9.63L18.4 1.56C18.4 0.7 17.72 0 16.88 0L1.52 0C0.68 0 0 0.7 0 1.56L0 7.28C0 7.54 0.2 7.76 0.46 7.76C0.72 7.76 0.93 7.54 0.93 7.28L0.93 1.56C0.93 1.23 1.2 0.96 1.52 0.96L5.87 0.96L5.87 7.2C5.87 7.37 5.96 7.53 6.11 7.62C6.26 7.7 6.44 7.7 6.58 7.6L9.2 5.95L11.81 7.6C12.12 7.8 12.53 7.56 12.53 7.2L12.53 0.96L16.88 0.96C17.2 0.96 17.47 1.23 17.47 1.56L17.47 9.49C17.28 9.47 17.1 9.46 16.91 9.46C13.01 9.46 9.83 12.72 9.83 16.73C9.83 17.13 9.86 17.53 9.92 17.92L1.52 17.92C1.2 17.92 0.93 17.65 0.93 17.31L0.93 11.59C0.93 11.33 0.72 11.11 0.46 11.11C0.2 11.11 0 11.33 0 11.59L0 17.31C0 18.18 0.68 18.88 1.52 18.88L10.15 18.88C11.04 21.84 13.74 24 16.91 24C20.82 24 24 20.74 24 16.73C24 13.25 21.6 10.33 18.4 9.63ZM11.59 6.33L9.44 4.98C9.29 4.88 9.1 4.88 8.95 4.98L6.81 6.33L6.81 0.96L11.59 0.96L11.59 6.33ZM16.91 23.03C13.52 23.03 10.77 20.2 10.77 16.73C10.77 13.25 13.52 10.43 16.91 10.43C20.3 10.43 23.06 13.25 23.06 16.73C23.06 20.2 20.3 23.03 16.91 23.03Z" fill="#041E42" fill-opacity="1.000000" fill-rule="nonzero"/>
</svg>
