<svg width="10.921875" height="9.583008" viewBox="0 0 10.9219 9.58301" fill="none" xmlns="http://www.w3.org/2000/svg" xmlns:xlink="http://www.w3.org/1999/xlink">
	<desc>
			Created with Pixso.
	</desc>
	<defs/>
	<path d="M10.89 3.62C10.82 3.41 10.62 3.27 10.39 3.25L7.24 2.99L5.99 0.32C5.9 0.12 5.69 0 5.46 0C5.22 0 5.01 0.12 4.92 0.32L3.68 2.99L0.52 3.25C0.29 3.27 0.1 3.41 0.02 3.62C-0.05 3.82 0.02 4.04 0.19 4.18L2.58 6.09L1.87 8.93C1.82 9.14 1.91 9.35 2.1 9.48C2.2 9.54 2.32 9.58 2.44 9.58C2.54 9.58 2.65 9.55 2.74 9.5L5.46 8.01L8.17 9.5C8.37 9.61 8.62 9.6 8.81 9.48C9 9.35 9.09 9.14 9.04 8.93L8.34 6.09L10.72 4.18C10.89 4.04 10.96 3.82 10.89 3.62Z" fill="#F5C34B" fill-opacity="1.000000" fill-rule="nonzero"/>
</svg>
