<svg width="35.815918" height="22.971191" viewBox="0 0 35.8159 22.9712" fill="none" xmlns="http://www.w3.org/2000/svg" xmlns:xlink="http://www.w3.org/1999/xlink">
	<desc>
			Created with Pixso.
	</desc>
	<defs>
		<clipPath id="clip1_764">
			<rect id="1" width="35.816044" height="22.971428" fill="white" fill-opacity="0"/>
		</clipPath>
	</defs>
	<rect id="1" width="35.816044" height="22.971428" fill="#FFFFFF" fill-opacity="0"/>
	<g clip-path="url(#clip1_764)">
		<path id="Vector" d="M32.98 0L2.82 0C1.22 0 0 1.24 0 2.87L0 20.1C0 21.72 1.31 22.97 2.82 22.97L32.98 22.97C34.59 22.97 35.81 21.72 35.81 20.1L35.81 2.87C35.81 1.24 34.49 0 32.98 0Z" fill="#F3F5F6" fill-opacity="1.000000" fill-rule="nonzero"/>
		<path id="Vector" d="M32.98 0.95C34.02 0.95 34.87 1.81 34.87 2.87L34.87 20.1C34.87 21.15 34.02 22.01 32.98 22.01L2.82 22.01C1.79 22.01 0.94 21.15 0.94 20.1L0.94 2.87C0.94 1.81 1.79 0.95 2.82 0.95L32.98 0.95Z" fill="#FFFFFF" fill-opacity="1.000000" fill-rule="nonzero"/>
		<path id="Vector" d="M26.67 9.66L26.39 9.66C26.01 10.62 25.73 11.1 25.44 12.53L27.23 12.53C26.95 11.1 26.95 10.43 26.67 9.66ZM29.4 15.31L27.8 15.31C27.71 15.31 27.71 15.31 27.61 15.21L27.42 14.35L27.33 14.16L25.07 14.16C24.97 14.16 24.88 14.16 24.88 14.35L24.6 15.21C24.6 15.31 24.5 15.31 24.5 15.31L22.52 15.31L22.71 14.83L25.44 8.32C25.44 7.84 25.73 7.65 26.2 7.65L27.61 7.65C27.71 7.65 27.8 7.65 27.8 7.84L29.12 14.07C29.21 14.45 29.31 14.74 29.31 15.12C29.4 15.21 29.4 15.21 29.4 15.31ZM16.77 15.02L17.15 13.3C17.24 13.3 17.34 13.39 17.34 13.39C18 13.68 18.66 13.87 19.32 13.78C19.51 13.78 19.79 13.68 19.98 13.59C20.45 13.39 20.45 12.92 20.07 12.53C19.88 12.34 19.6 12.25 19.32 12.06C18.94 11.86 18.56 11.67 18.28 11.39C17.15 10.43 17.53 9.09 18.19 8.42C18.75 8.04 19.03 7.65 19.79 7.65C20.92 7.65 22.14 7.65 22.71 7.84L22.8 7.84C22.71 8.42 22.62 8.9 22.43 9.47C21.96 9.28 21.48 9.09 21.01 9.09C20.73 9.09 20.45 9.09 20.17 9.18C19.98 9.18 19.88 9.28 19.79 9.37C19.6 9.57 19.6 9.85 19.79 10.05L20.26 10.43C20.64 10.62 21.01 10.81 21.3 11C21.77 11.29 22.24 11.77 22.33 12.34C22.52 13.2 22.24 13.97 21.48 14.54C21.01 14.93 20.83 15.12 20.17 15.12C18.85 15.12 17.81 15.21 16.96 14.93C16.87 15.12 16.87 15.12 16.77 15.02ZM13.47 15.31C13.57 14.64 13.57 14.64 13.66 14.35C14.13 12.25 14.6 10.05 14.98 7.94C15.08 7.75 15.08 7.65 15.26 7.65L16.96 7.65C16.77 8.8 16.58 9.66 16.3 10.72C16.02 12.15 15.74 13.59 15.36 15.02C15.36 15.21 15.26 15.21 15.08 15.21L13.47 15.31ZM4.71 7.84C4.71 7.75 4.9 7.65 4.99 7.65L8.2 7.65C8.67 7.65 9.04 7.94 9.14 8.42L9.99 12.63C9.99 12.73 9.99 12.73 10.08 12.82C10.08 12.73 10.17 12.73 10.17 12.73L12.15 7.84C12.06 7.75 12.15 7.65 12.25 7.65L14.23 7.65C14.23 7.75 14.23 7.75 14.13 7.84L11.21 14.83C11.12 15.02 11.12 15.12 11.02 15.21C10.93 15.31 10.74 15.21 10.55 15.21L9.14 15.21C9.04 15.21 8.95 15.21 8.95 15.02L7.44 9.09C7.25 8.9 6.97 8.61 6.59 8.51C6.03 8.23 4.99 8.04 4.8 8.04L4.71 7.84Z" fill="#142688" fill-opacity="1.000000" fill-rule="nonzero"/>
	</g>
</svg>
