<svg width="20.278320" height="16.000000" viewBox="0 0 20.2783 16" fill="none" xmlns="http://www.w3.org/2000/svg" xmlns:xlink="http://www.w3.org/1999/xlink">
	<desc>
			Created with Pixso.
	</desc>
	<defs/>
	<path id="XMLID_221_" d="M12.67 16C13.48 16 14.19 15.53 14.19 14.99L14.19 12.65L15.2 12.65C15.81 12.65 16.22 12.39 16.22 11.99L16.22 5.31L4.05 5.31L4.05 11.99C4.05 12.39 4.46 12.65 5.06 12.65L6.08 12.65L6.08 14.99C6.08 15.53 6.79 16 7.6 16C8.41 16 9.12 15.53 9.12 14.99L9.12 12.65L11.15 12.65L11.15 14.99C11.15 15.53 11.86 16 12.67 16Z" fill="#000000" fill-opacity="1.000000" fill-rule="nonzero"/>
	<path id="XMLID_222_" d="M18.75 11.99C19.57 11.99 20.27 11.52 20.27 10.98L20.27 6.31C20.27 5.77 19.57 5.31 18.75 5.31C17.94 5.31 17.23 5.77 17.23 6.31L17.23 10.98C17.23 11.52 17.94 11.99 18.75 11.99Z" fill="#000000" fill-opacity="1.000000" fill-rule="nonzero"/>
	<path id="XMLID_223_" d="M1.52 11.99C2.33 11.99 3.03 11.52 3.03 10.98L3.03 6.31C3.03 5.77 2.33 5.31 1.52 5.31C0.7 5.31 0 5.77 0 6.31L0 10.98C0 11.52 0.7 11.99 1.52 11.99Z" fill="#000000" fill-opacity="1.000000" fill-rule="nonzero"/>
	<path id="XMLID_224_" d="M15 0.1C14.8 -0.04 14.5 -0.04 14.29 0.1L12.93 0.99L12.87 1.03C12.06 0.77 11.16 0.63 10.15 0.63C10.14 0.63 10.14 0.63 10.13 0.63L10.13 0.63C10.13 0.63 10.12 0.63 10.12 0.63C9.11 0.63 8.21 0.77 7.4 1.03L7.34 0.99L5.98 0.1C5.77 -0.04 5.47 -0.04 5.27 0.1C5.06 0.23 5.06 0.43 5.27 0.56L6.58 1.43C6.16 1.62 5.78 1.84 5.44 2.11C4.64 2.73 4.13 3.55 4.06 4.43C4.06 4.44 4.06 4.45 4.06 4.46C4.05 4.52 4.05 4.58 4.05 4.64L16.22 4.64C16.22 4.58 16.22 4.52 16.21 4.46C16.21 4.45 16.21 4.44 16.21 4.43C16.14 3.55 15.63 2.73 14.83 2.11C14.49 1.84 14.11 1.62 13.68 1.43L15 0.56C15.2 0.43 15.2 0.23 15 0.1ZM7.6 3.47C7.18 3.47 6.84 3.24 6.84 2.97C6.84 2.69 7.18 2.47 7.6 2.47C8.02 2.47 8.36 2.69 8.36 2.97C8.36 3.24 8.02 3.47 7.6 3.47ZM12.67 3.47C12.25 3.47 11.91 3.24 11.91 2.97C11.91 2.69 12.25 2.47 12.67 2.47C13.09 2.47 13.43 2.69 13.43 2.97C13.43 3.24 13.09 3.47 12.67 3.47Z" fill="#000000" fill-opacity="1.000000" fill-rule="nonzero"/>
</svg>
