<svg width="119.621094" height="25.039062" viewBox="0 0 119.621 25.0391" fill="none" xmlns="http://www.w3.org/2000/svg" xmlns:xlink="http://www.w3.org/1999/xlink">
	<desc>
			Created with Pixso.
	</desc>
	<defs>
		<filter id="filter_7_3861_dd" x="0.000000" y="0.000000" width="119.621094" height="25.039062" filterUnits="userSpaceOnUse" color-interpolation-filters="sRGB">
			<feFlood flood-opacity="0" result="BackgroundImageFix"/>
			<feColorMatrix in="SourceAlpha" type="matrix" values="0 0 0 0 0 0 0 0 0 0 0 0 0 0 0 0 0 0 127 0" result="hardAlpha"/>
			<feOffset dx="0" dy="4"/>
			<feGaussianBlur stdDeviation="1.33333"/>
			<feComposite in2="hardAlpha" operator="out" k2="-1" k3="1"/>
			<feColorMatrix type="matrix" values="0 0 0 0 0 0 0 0 0 0 0 0 0 0 0 0 0 0 0.25 0"/>
			<feBlend mode="normal" in2="BackgroundImageFix" result="effect_dropShadow_1"/>
			<feBlend mode="normal" in="SourceGraphic" in2="effect_dropShadow_1" result="shape"/>
		</filter>
	</defs>
	<g filter="url(#filter_7_3861_dd)">
		<path id="Zenmart." d="M15.9 13.48L8.65 13.48L15.9 3.11L15.9 0L4 0L4 3.35L11.2 3.35L4 13.72L4 16.84L15.9 16.84L15.9 13.48ZM109 16.84L109 13.36L107.53 13.36Q106.86 13.36 106.57 13.1Q106.28 12.83 106.28 12.24L106.28 6.86L108.97 6.86L108.97 3.45L106.28 3.45L106.28 0.18L102.18 0.18L102.18 3.45L100.55 3.45L100.55 6.86L102.18 6.86L102.18 12.18Q102.18 14.62 103.39 15.72Q103.41 15.74 103.43 15.75Q104.68 16.84 106.9 16.84L109 16.84ZM31.14 11.13Q31.21 10.51 31.21 9.93Q31.21 7.91 30.36 6.4Q29.91 5.6 29.27 4.99Q28.7 4.45 28 4.07Q27.98 4.07 27.97 4.06Q26.47 3.26 24.54 3.26Q22.55 3.26 21.01 4.1L21.01 4.1Q20.34 4.46 19.79 4.97Q19.1 5.62 18.62 6.5Q17.77 8.06 17.77 10.14Q17.77 12.24 18.63 13.79Q19.12 14.66 19.81 15.31Q20.36 15.82 21.04 16.2Q21.1 16.23 21.16 16.26Q22.65 17.03 24.54 17.03Q26.17 17.03 27.49 16.44Q28.54 15.95 29.31 15.18Q29.51 14.99 29.68 14.78Q30.15 14.22 30.46 13.59Q30.74 13.03 30.9 12.4L26.53 12.4Q26.27 12.97 25.82 13.29Q25.26 13.69 24.39 13.69Q23.75 13.69 23.24 13.44Q22.92 13.29 22.65 13.04Q22.61 12.99 22.56 12.95Q21.94 12.29 21.85 11.13L31.14 11.13ZM74.93 6.5Q74.15 8.06 74.15 10.12Q74.15 12.18 74.93 13.76Q75.57 15.06 76.6 15.87Q76.82 16.04 77.05 16.18Q77.62 16.55 78.25 16.76Q79.09 17.03 80.02 17.03Q81.44 17.03 82.51 16.46Q83.4 15.97 83.97 15.24Q84.08 15.1 84.18 14.94L84.18 16.84L88.28 16.84L88.28 3.45L84.18 3.45L84.18 5.34Q84.1 5.21 84 5.08Q83.45 4.32 82.53 3.83Q81.47 3.26 80.05 3.26Q79 3.26 78.08 3.59Q77.54 3.79 77.05 4.1Q76.82 4.24 76.6 4.41Q75.57 5.2 74.93 6.5ZM44.33 4.04Q43.16 3.31 41.53 3.31Q40.21 3.31 39.15 3.82Q38.31 4.23 37.74 4.88Q37.6 5.05 37.47 5.23L37.47 3.45L33.37 3.45L33.37 16.84L37.47 16.84L37.47 9.57Q37.47 8.29 38.1 7.56Q38.13 7.52 38.17 7.48Q38.36 7.28 38.6 7.13Q39.19 6.74 40.04 6.74Q40.88 6.74 41.48 7.12Q41.71 7.27 41.91 7.48Q41.95 7.52 41.98 7.56Q42.61 8.29 42.61 9.57L42.61 16.84L46.69 16.84L46.69 9.02Q46.69 6.54 45.48 5.05Q45.38 4.94 45.28 4.83Q44.85 4.36 44.33 4.04ZM69.86 4.19Q68.54 3.31 66.63 3.31Q65.84 3.31 65.11 3.53Q64.55 3.7 64.02 4Q63.13 4.52 62.51 5.26Q62.3 5.52 62.12 5.8Q61.75 5.14 61.23 4.65Q60.8 4.25 60.26 3.96Q60.17 3.91 60.08 3.86Q58.96 3.31 57.56 3.31Q56.29 3.31 55.28 3.8Q54.47 4.2 53.9 4.82Q53.77 4.97 53.65 5.13L53.65 3.45L49.55 3.45L49.55 16.84L53.65 16.84L53.65 9.57Q53.65 8.36 54.24 7.66Q54.29 7.61 54.33 7.57Q54.47 7.43 54.62 7.32Q55.25 6.86 56.22 6.86Q57.18 6.86 57.8 7.31Q57.96 7.42 58.1 7.57Q58.15 7.61 58.19 7.66Q58.79 8.36 58.79 9.57L58.79 16.84L62.86 16.84L62.86 9.57Q62.86 8.36 63.46 7.66Q63.5 7.61 63.55 7.57Q63.69 7.42 63.85 7.31Q64.48 6.86 65.43 6.86Q66.4 6.86 67.03 7.32Q67.18 7.43 67.32 7.57Q67.36 7.61 67.41 7.66Q68 8.36 68 9.57L68 16.84L72.08 16.84L72.08 9.02Q72.08 6.63 70.92 5.17Q70.77 4.99 70.6 4.82Q70.26 4.46 69.86 4.19ZM96.63 4.3Q95.9 4.86 95.36 5.68L95.36 3.45L91.26 3.45L91.26 16.84L95.36 16.84L95.36 10.62Q95.36 8.97 96.13 8.31Q96.9 7.65 98.44 7.65L99.56 7.65L99.56 3.31Q98.68 3.31 97.91 3.59Q97.52 3.73 97.16 3.94Q96.88 4.11 96.63 4.3ZM26.71 7.67Q27.01 8.17 27.01 8.85L21.87 8.85Q22.02 7.9 22.56 7.32Q22.65 7.23 22.75 7.15Q22.94 6.98 23.17 6.86Q23.74 6.55 24.49 6.55Q25.29 6.55 25.89 6.89Q26.1 7.01 26.29 7.17Q26.55 7.39 26.71 7.67ZM83.54 7.98Q84.18 8.82 84.18 10.14Q84.18 11.47 83.54 12.31Q83.44 12.45 83.32 12.57Q82.9 13.01 82.37 13.24Q81.86 13.45 81.25 13.45Q80.66 13.45 80.16 13.25Q79.61 13.02 79.17 12.56Q79.06 12.44 78.96 12.3Q78.32 11.45 78.32 10.12Q78.32 8.78 78.97 7.94Q79.06 7.82 79.17 7.71Q79.6 7.27 80.12 7.05Q80.64 6.83 81.25 6.83Q81.85 6.83 82.36 7.05Q82.89 7.27 83.32 7.72Q83.44 7.84 83.54 7.98Z" fill="#FFFFFF" fill-opacity="1.000000" fill-rule="evenodd"/>
		<path id="Zenmart." d="M111.76 16.66Q112.36 17.03 113.2 17.03Q113.97 17.03 114.54 16.7Q114.75 16.57 114.93 16.4Q115.27 16.08 115.44 15.69Q115.62 15.29 115.62 14.83Q115.62 14.31 115.42 13.89Q115.25 13.52 114.93 13.22Q114.73 13.03 114.49 12.89Q113.94 12.57 113.2 12.57Q112.39 12.57 111.81 12.93Q111.6 13.05 111.43 13.22Q111.11 13.52 110.95 13.88Q110.75 14.31 110.75 14.83Q110.75 15.3 110.92 15.7Q111.09 16.09 111.43 16.4Q111.58 16.55 111.76 16.66Z" fill="#FFFFFF" fill-opacity="1.000000" fill-rule="evenodd"/>
	</g>
</svg>
