<svg width="18.735291" height="16.000000" viewBox="0 0 18.7353 16" fill="none" xmlns="http://www.w3.org/2000/svg" xmlns:xlink="http://www.w3.org/1999/xlink">
	<desc>
			Created with Pixso.
	</desc>
	<defs>
		<clipPath id="clip1_1412">
			<rect id="heart 1" width="18.735294" height="16.000000" fill="white" fill-opacity="0"/>
		</clipPath>
	</defs>
	<rect id="heart 1" width="18.735294" height="16.000000" fill="#FFFFFF" fill-opacity="0"/>
	<g clip-path="url(#clip1_1412)">
		<path id="Vector" d="M12.45 2.58C14.66 2.58 16.45 4.13 16.45 6.31C16.45 10.65 10.99 13.14 9.18 14.07C7.36 13.14 1.9 10.65 1.9 6.31C1.9 4.13 3.72 2.58 5.9 2.58C7.26 2.58 8.45 3.2 9.18 3.82C9.9 3.2 11.1 2.58 12.45 2.58ZM9.86 12.27C10.5 11.92 11.07 11.58 11.62 11.21C13.78 9.74 14.99 8.13 14.99 6.31C14.99 4.84 13.88 3.82 12.45 3.82C11.67 3.82 10.82 4.18 10.2 4.7L9.18 5.58L8.15 4.7C7.53 4.18 6.69 3.82 5.9 3.82C4.49 3.82 3.36 4.85 3.36 6.31C3.36 8.13 4.57 9.74 6.74 11.21C7.28 11.58 7.86 11.92 8.5 12.27C8.71 12.39 8.93 12.5 9.18 12.62C9.42 12.5 9.64 12.39 9.86 12.27Z" fill="#041E42" fill-opacity="1.000000" fill-rule="nonzero"/>
	</g>
</svg>
