<svg width="18.735291" height="16.000000" viewBox="0 0 18.7353 16" fill="none" xmlns="http://www.w3.org/2000/svg" xmlns:xlink="http://www.w3.org/1999/xlink">
	<desc>
			Created with Pixso.
	</desc>
	<defs>
		<clipPath id="clip1_1416">
			<rect id="graph 1" width="18.735294" height="16.000000" fill="white" fill-opacity="0"/>
		</clipPath>
	</defs>
	<rect id="graph 1" width="18.735294" height="16.000000" fill="#FFFFFF" fill-opacity="0"/>
	<g clip-path="url(#clip1_1416)">
		<path id="Vector" d="M18.14 13.28L17.77 13.28L17.77 2.21C17.77 1.94 17.51 1.71 17.18 1.71L13.61 1.71C13.29 1.71 13.03 1.94 13.03 2.21L13.03 13.28L11.73 13.28L11.73 4.55C11.73 4.27 11.47 4.05 11.15 4.05L7.58 4.05C7.25 4.05 6.99 4.27 6.99 4.55L6.99 13.28L5.7 13.28L5.7 6.88C5.7 6.6 5.44 6.38 5.11 6.38L1.54 6.38C1.22 6.38 0.96 6.6 0.96 6.88L0.96 13.28L0.58 13.28C0.26 13.28 0 13.5 0 13.78C0 14.06 0.26 14.28 0.58 14.28L18.14 14.28C18.47 14.28 18.73 14.06 18.73 13.78C18.73 13.5 18.47 13.28 18.14 13.28ZM14.2 2.71L16.6 2.71L16.6 13.28L14.2 13.28L14.2 2.71ZM8.16 13.28L8.16 5.05L10.56 5.05L10.56 13.28L8.16 13.28ZM2.13 7.38L4.53 7.38L4.53 13.28L2.13 13.28L2.13 7.38Z" fill="#041E42" fill-opacity="1.000000" fill-rule="nonzero"/>
	</g>
</svg>
