<svg width="20.902344" height="20.000000" viewBox="0 0 20.9023 20" fill="none" xmlns="http://www.w3.org/2000/svg" xmlns:xlink="http://www.w3.org/1999/xlink">
	<desc>
			Created with Pixso.
	</desc>
	<defs>
		<clipPath id="clip1_2212">
			<rect id="exit 1" width="20.902258" height="20.000000" transform="matrix(-1 0 0 1 20.9023 0)" fill="white" fill-opacity="0"/>
		</clipPath>
	</defs>
	<rect id="exit 1" width="20.902258" height="20.000000" transform="matrix(-1 0 0 1 20.9023 0)" fill="#FFFFFF" fill-opacity="0"/>
	<g clip-path="url(#clip1_2212)">
		<path id="Vector" d="M11.06 20L16 20C18.7 20 20.9 17.89 20.9 15.31L20.9 4.68C20.9 2.1 18.7 0 16 0L11.06 0C8.36 0 6.16 2.1 6.16 4.68L6.16 5.46C6.16 5.9 6.53 6.25 6.98 6.25C7.43 6.25 7.79 5.9 7.79 5.46L7.79 4.68C7.79 2.96 9.26 1.56 11.06 1.56L16 1.56C17.8 1.56 19.26 2.96 19.26 4.68L19.26 15.31C19.26 17.03 17.8 18.43 16 18.43L11.06 18.43C9.26 18.43 7.79 17.03 7.79 15.31L7.79 14.53C7.79 14.09 7.43 13.75 6.98 13.75C6.53 13.75 6.16 14.09 6.16 14.53L6.16 15.31C6.16 17.89 8.36 20 11.06 20Z" fill="#041E42" fill-opacity="1.000000" fill-rule="nonzero"/>
		<path id="Vector" d="M3.18 13.75C3.39 13.75 3.6 13.67 3.76 13.52C4.08 13.21 4.08 12.72 3.76 12.41L1.87 10.61C1.71 10.46 1.63 10.27 1.63 10.06C1.63 9.85 1.71 9.66 1.87 9.51L3.75 7.74C4.07 7.44 4.08 6.94 3.76 6.63C3.45 6.33 2.93 6.32 2.61 6.62L0.72 8.4C0.72 8.4 0.71 8.4 0.71 8.41C0.25 8.85 0 9.43 0 10.06C0 10.68 0.25 11.27 0.71 11.71L2.6 13.52C2.76 13.67 2.97 13.75 3.18 13.75ZM3.22 10C3.22 9.56 3.59 9.21 4.04 9.21L12.86 9.21C13.31 9.21 13.67 9.56 13.67 10C13.67 10.43 13.31 10.78 12.86 10.78L4.04 10.78C3.59 10.78 3.22 10.43 3.22 10Z" fill="#041E42" fill-opacity="1.000000" fill-rule="nonzero"/>
	</g>
</svg>
