<svg width="20.902344" height="20.000000" viewBox="0 0 20.9023 20" fill="none" xmlns="http://www.w3.org/2000/svg" xmlns:xlink="http://www.w3.org/1999/xlink">
	<desc>
			Created with Pixso.
	</desc>
	<defs>
		<clipPath id="clip1_2203">
			<rect id="invoice 1" width="20.902258" height="20.000000" fill="white" fill-opacity="0"/>
		</clipPath>
	</defs>
	<rect id="invoice 1" width="20.902258" height="20.000000" fill="#FFFFFF" fill-opacity="0"/>
	<g clip-path="url(#clip1_2203)">
		<path id="Vector" d="M12.08 10L8.81 10C8.36 10 8 9.65 8 9.21C8 8.78 8.36 8.43 8.81 8.43L12.08 8.43C12.53 8.43 12.9 8.78 12.9 9.21C12.9 9.65 12.53 10 12.08 10Z" fill="#041E42" fill-opacity="1.000000" fill-rule="nonzero"/>
		<path id="Vector" d="M12.08 13.12L8.81 13.12C8.36 13.12 8 12.77 8 12.34C8 11.91 8.36 11.56 8.81 11.56L12.08 11.56C12.53 11.56 12.9 11.91 12.9 12.34C12.9 12.77 12.53 13.12 12.08 13.12Z" fill="#041E42" fill-opacity="1.000000" fill-rule="nonzero"/>
		<path id="Vector" d="M16.81 0.62L4.08 0.62C1.83 0.62 0 2.37 0 4.53L0 6.09C0 7.48 0.78 8.78 2.04 9.47C2.43 9.69 2.93 9.56 3.15 9.19C3.38 8.81 3.24 8.34 2.85 8.12C2.1 7.7 1.63 6.92 1.63 6.09L1.63 4.53C1.63 3.23 2.73 2.18 4.08 2.18L16.81 2.18C18.17 2.18 19.26 3.23 19.26 4.53L19.26 6.09C19.26 6.92 18.79 7.7 18.04 8.12C17.65 8.34 17.52 8.81 17.74 9.19C17.97 9.56 18.47 9.69 18.86 9.47C20.12 8.78 20.9 7.48 20.9 6.09L20.9 4.53C20.9 2.37 19.07 0.62 16.81 0.62Z" fill="#041E42" fill-opacity="1.000000" fill-rule="nonzero"/>
		<path id="Vector" d="M16.81 3.75L4.08 3.75C3.63 3.75 3.26 4.09 3.26 4.53C3.26 4.96 3.63 5.31 4.08 5.31L4.73 5.31L4.73 18.59C4.73 19.02 5.1 19.37 5.55 19.37C6 19.37 6.36 19.02 6.36 18.59C6.36 18.16 6.73 17.81 7.18 17.81C7.63 17.81 8 18.16 8 18.59C8 19.02 8.36 19.37 8.81 19.37C9.26 19.37 9.63 19.02 9.63 18.59C9.63 18.16 10 17.81 10.45 17.81C10.9 17.81 11.26 18.16 11.26 18.59C11.26 19.02 11.63 19.37 12.08 19.37C12.53 19.37 12.9 19.02 12.9 18.59C12.9 18.16 13.26 17.81 13.71 17.81C14.16 17.81 14.53 18.16 14.53 18.59C14.53 19.02 14.89 19.37 15.34 19.37C15.8 19.37 16.16 19.02 16.16 18.59L16.16 5.31L16.81 5.31C17.27 5.31 17.63 4.96 17.63 4.53C17.63 4.09 17.27 3.75 16.81 3.75ZM14.53 16.38C14.27 16.29 14 16.25 13.71 16.25C13.08 16.25 12.51 16.47 12.08 16.84C11.65 16.47 11.07 16.25 10.45 16.25C9.82 16.25 9.25 16.47 8.81 16.84C8.38 16.47 7.81 16.25 7.18 16.25C6.89 16.25 6.62 16.29 6.36 16.38L6.36 5.31L14.53 5.31L14.53 16.38Z" fill="#041E42" fill-opacity="1.000000" fill-rule="nonzero"/>
	</g>
</svg>
