<svg width="20.902344" height="20.000000" viewBox="0 0 20.9023 20" fill="none" xmlns="http://www.w3.org/2000/svg" xmlns:xlink="http://www.w3.org/1999/xlink">
	<desc>
			Created with Pixso.
	</desc>
	<defs>
		<clipPath id="clip1_2199">
			<rect id="location 1" width="20.902258" height="20.000000" fill="white" fill-opacity="0"/>
		</clipPath>
	</defs>
	<rect id="location 1" width="20.902258" height="20.000000" fill="#FFFFFF" fill-opacity="0"/>
	<g clip-path="url(#clip1_2199)">
		<path id="Vector" d="M16.63 2.45C14.99 0.87 12.79 0 10.46 0L10.45 0C5.74 -0.1 1.61 3.87 1.71 8.37C1.83 11.55 5.03 15.58 7.52 18.68C8.25 19.52 9.31 20 10.46 20C11.64 20 12.74 19.48 13.47 18.59C15.32 16.4 19.3 11.12 19.18 8.37C19.18 6.13 18.28 4.03 16.63 2.45ZM12.19 17.63C11.34 18.69 9.57 18.7 8.72 17.63C5.35 13.52 3.34 10.1 3.34 8.37C3.34 4.61 6.53 1.56 10.45 1.56L10.46 1.56C14.37 1.56 17.55 4.61 17.55 8.37C17.55 10.12 15.59 13.49 12.19 17.63ZM10.49 11.68C8.58 11.68 7.02 10.19 7.02 8.36C7.21 3.95 13.77 3.95 13.96 8.36C13.96 10.19 12.4 11.68 10.49 11.68ZM10.49 6.6C9.48 6.6 8.65 7.39 8.65 8.36C8.75 10.69 12.23 10.69 12.33 8.36C12.33 7.39 11.5 6.6 10.49 6.6Z" fill="#041E42" fill-opacity="1.000000" fill-rule="nonzero"/>
	</g>
</svg>
