<svg width="24.000000" height="24.000000" viewBox="0 0 24 24" fill="none" xmlns="http://www.w3.org/2000/svg" xmlns:xlink="http://www.w3.org/1999/xlink">
	<desc>
			Created with Pixso.
	</desc>
	<defs>
		<clipPath id="clip1_1444">
			<rect id="truck 1" width="24.000000" height="24.000000" fill="white" fill-opacity="0"/>
		</clipPath>
	</defs>
	<rect id="truck 1" width="24.000000" height="24.000000" fill="#FFFFFF" fill-opacity="0"/>
	<g clip-path="url(#clip1_1444)">
		<path id="Vector" d="M5.15 5.9C4.89 5.9 4.68 6.11 4.68 6.37C4.68 6.63 4.89 6.84 5.15 6.84C5.41 6.84 5.62 6.63 5.62 6.37C5.62 6.11 5.41 5.9 5.15 5.9Z" fill="#041E42" fill-opacity="1.000000" fill-rule="nonzero"/>
		<path id="Vector" d="M22.07 9.91L21.39 8.55C21.15 8.07 20.67 7.78 20.13 7.78L16.21 7.78L16.21 4.5C16.21 3.72 15.58 3.09 14.81 3.09L1.4 3.09C0.63 3.09 0 3.72 0 4.5L0 16.68C0 17.46 0.63 18.09 1.4 18.09L2.81 18.09C2.81 18.81 3.08 19.46 3.53 19.96L0.46 19.96C0.2 19.96 0 20.17 0 20.43C0 20.69 0.2 20.9 0.46 20.9L23.53 20.9C23.78 20.9 23.99 20.69 23.99 20.43C23.99 20.17 23.78 19.96 23.53 19.96L22.34 19.96C22.78 19.46 23.06 18.81 23.06 18.09C23.06 18.06 23.06 18.04 23.05 18.01C23.6 17.82 23.99 17.29 23.99 16.68L23.99 14.09C23.99 13.54 24.1 14.05 22.07 9.91ZM21.36 10.59L22.77 13.4L18.09 13.4L18.09 10.59L21.36 10.59ZM0.93 14.34L1.87 14.34L1.87 15.28L0.93 15.28L0.93 14.34ZM5.62 19.96C4.59 19.96 3.74 19.12 3.74 18.09C3.74 17.96 3.76 17.83 3.78 17.71C3.96 16.84 4.73 16.21 5.62 16.21C6.51 16.21 7.28 16.84 7.46 17.71C7.46 17.71 7.46 17.71 7.46 17.71C7.48 17.83 7.49 17.96 7.49 18.09C7.49 19.12 6.65 19.96 5.62 19.96ZM5.62 15.28C4.42 15.28 3.36 16.04 2.97 17.15L1.4 17.15C1.14 17.15 0.93 16.94 0.93 16.68L0.93 16.21L2.34 16.21C2.6 16.21 2.81 16 2.81 15.74L2.81 13.87C2.81 13.61 2.6 13.4 2.34 13.4L0.93 13.4L0.93 4.5C0.93 4.24 1.14 4.03 1.4 4.03L14.81 4.03C15.07 4.03 15.28 4.24 15.28 4.5C15.28 4.84 15.28 16.03 15.28 17.15L8.27 17.15C7.88 16.04 6.82 15.28 5.62 15.28ZM7.71 19.96C8.16 19.46 8.43 18.81 8.43 18.09C8.79 18.09 17.28 18.09 17.43 18.09C17.43 18.81 17.7 19.46 18.15 19.96L7.71 19.96ZM20.24 19.96C19.21 19.96 18.37 19.12 18.37 18.09C18.37 17.96 18.38 17.83 18.41 17.71C18.58 16.84 19.36 16.21 20.24 16.21C21.13 16.21 21.9 16.84 22.08 17.71C22.08 17.71 22.08 17.71 22.08 17.71C22.11 17.83 22.12 17.96 22.12 18.09C22.12 19.12 21.28 19.96 20.24 19.96ZM23.06 16.68C23.06 16.84 22.98 16.98 22.86 17.06C22.45 16 21.41 15.28 20.24 15.28C19.04 15.28 17.98 16.04 17.59 17.15L16.21 17.15L16.21 8.71L20.13 8.71C20.31 8.71 20.47 8.81 20.55 8.97L20.89 9.65L17.62 9.65C17.36 9.65 17.15 9.86 17.15 10.12L17.15 13.87C17.15 14.13 17.36 14.34 17.62 14.34L23.06 14.34L23.06 16.68Z" fill="#041E42" fill-opacity="1.000000" fill-rule="nonzero"/>
		<path id="Vector" d="M12.93 5.9L7.03 5.9C6.77 5.9 6.56 6.11 6.56 6.37C6.56 6.63 6.77 6.84 7.03 6.84L12.93 6.84C13.19 6.84 13.4 6.63 13.4 6.37C13.4 6.11 13.19 5.9 12.93 5.9Z" fill="#041E42" fill-opacity="1.000000" fill-rule="nonzero"/>
		<path id="Vector" d="M12.93 7.78L8.9 7.78C8.64 7.78 8.43 7.99 8.43 8.25C8.43 8.5 8.64 8.71 8.9 8.71L12.93 8.71C13.19 8.71 13.4 8.5 13.4 8.25C13.4 7.99 13.19 7.78 12.93 7.78Z" fill="#041E42" fill-opacity="1.000000" fill-rule="nonzero"/>
		<path id="Vector" d="M20.24 17.15C19.73 17.15 19.31 17.57 19.31 18.09C19.31 18.61 19.73 19.03 20.24 19.03C20.76 19.03 21.18 18.61 21.18 18.09C21.18 17.57 20.76 17.15 20.24 17.15Z" fill="#041E42" fill-opacity="1.000000" fill-rule="nonzero"/>
		<path id="Vector" d="M5.62 17.15C5.1 17.15 4.68 17.57 4.68 18.09C4.68 18.61 5.1 19.03 5.62 19.03C6.14 19.03 6.56 18.61 6.56 18.09C6.56 17.57 6.14 17.15 5.62 17.15Z" fill="#041E42" fill-opacity="1.000000" fill-rule="nonzero"/>
	</g>
</svg>
