<svg width="34.610352" height="40.000000" viewBox="0 0 34.6104 40" fill="none" xmlns="http://www.w3.org/2000/svg" xmlns:xlink="http://www.w3.org/1999/xlink">
	<desc>
			Created with Pixso.
	</desc>
	<defs/>
	<path id="Vector" d="M17.3 0C7.76 0 0 7.88 0 17.57C0 18.65 0 26.96 0 27.1C0 29.04 1.55 30.62 3.46 30.62L4.81 30.62C5.28 31.98 6.57 32.96 8.07 32.96C9.98 32.96 11.53 31.39 11.53 29.45L11.53 19.92C11.53 17.98 9.98 16.4 8.07 16.4C6.57 16.4 5.28 17.38 4.81 18.75L3.46 18.75C3.05 18.75 2.66 18.82 2.3 18.95L2.3 17.57C2.3 9.17 9.03 2.34 17.3 2.34C25.57 2.34 32.3 9.17 32.3 17.57L32.3 18.95C31.94 18.82 31.55 18.75 31.14 18.75L29.79 18.75C29.32 17.38 28.03 16.4 26.53 16.4C24.62 16.4 23.07 17.98 23.07 19.92L23.07 29.45C23.07 31.39 24.62 32.96 26.53 32.96C26.88 32.96 27.22 32.91 27.53 32.81C27.1 34.25 25.78 35.31 24.22 35.31L20.56 35.31C20.09 33.94 18.8 32.96 17.3 32.96C15.39 32.96 13.84 34.54 13.84 36.48C13.84 38.42 15.39 40 17.3 40C18.8 40 20.09 39.02 20.56 37.65L24.22 37.65C27.4 37.65 29.99 35.02 29.99 31.79L29.99 30.62L31.14 30.62C33.05 30.62 34.61 29.04 34.61 27.1C34.61 26.96 34.61 18.65 34.61 17.57C34.61 7.88 26.84 0 17.3 0ZM6.92 19.92C6.92 19.27 7.43 18.75 8.07 18.75C8.71 18.75 9.22 19.27 9.22 19.92L9.22 29.45C9.22 30.09 8.71 30.62 8.07 30.62C7.43 30.62 6.92 30.09 6.92 29.45L6.92 19.92ZM3.46 21.09L4.61 21.09L4.61 28.28L3.46 28.28C2.82 28.28 2.3 27.75 2.3 27.1L2.3 22.26C2.3 21.61 2.82 21.09 3.46 21.09ZM17.3 37.65C16.66 37.65 16.15 37.13 16.15 36.48C16.15 35.83 16.66 35.31 17.3 35.31C17.94 35.31 18.45 35.83 18.45 36.48C18.45 37.13 17.94 37.65 17.3 37.65ZM27.68 29.45C27.68 30.09 27.17 30.62 26.53 30.62C25.89 30.62 25.38 30.09 25.38 29.45L25.38 19.92C25.38 19.27 25.89 18.75 26.53 18.75C27.17 18.75 27.68 19.27 27.68 19.92L27.68 29.45ZM32.3 27.1C32.3 27.75 31.78 28.28 31.14 28.28L29.99 28.28L29.99 21.09L31.14 21.09C31.78 21.09 32.3 21.61 32.3 22.26L32.3 27.1Z" fill="#041E42" fill-opacity="1.000000" fill-rule="nonzero"/>
</svg>
