<svg width="18.416992" height="20.000000" viewBox="0 0 18.417 20" fill="none" xmlns="http://www.w3.org/2000/svg" xmlns:xlink="http://www.w3.org/1999/xlink">
	<desc>
			Created with Pixso.
	</desc>
	<defs/>
	<path id="Vector" d="M0.81 19.96C0.36 19.96 0 19.61 0 19.18C0 15.26 3.32 12.08 7.41 12.08L8.63 12.08C9.53 12.08 10.41 12.23 11.24 12.53C11.66 12.68 11.88 13.13 11.72 13.54C11.56 13.94 11.09 14.14 10.67 13.99C10.02 13.76 9.33 13.64 8.63 13.64L7.41 13.64C4.22 13.64 1.62 16.12 1.62 19.18C1.62 19.61 1.26 19.96 0.81 19.96ZM13.44 5.26C13.44 2.36 10.97 0 7.94 0C4.91 0 2.44 2.36 2.44 5.26C2.44 8.16 4.91 10.52 7.94 10.52C10.97 10.52 13.44 8.16 13.44 5.26ZM11.81 5.26C11.81 7.3 10.08 8.96 7.94 8.96C5.81 8.96 4.07 7.3 4.07 5.26C4.07 3.22 5.81 1.55 7.94 1.55C10.08 1.55 11.81 3.22 11.81 5.26ZM18.41 17.62L18.41 15.56C18.41 14.24 17.29 13.17 15.92 13.17L13.77 13.17C13.32 13.17 12.95 13.52 12.95 13.95C12.95 14.38 13.32 14.73 13.77 14.73L15.92 14.73C16.4 14.73 16.78 15.1 16.78 15.56L16.78 17.62C16.78 18.05 17.15 18.4 17.6 18.4C18.05 18.4 18.41 18.05 18.41 17.62ZM15.58 17.14C15.89 16.83 15.88 16.34 15.55 16.04C15.23 15.74 14.71 15.75 14.4 16.06C12.9 17.57 10.78 18.44 8.61 18.44L8.23 18.44C7.78 18.44 7.41 18.79 7.41 19.22C7.41 19.65 7.78 20 8.23 20L8.61 20C11.23 20 13.77 18.95 15.58 17.14Z" fill="#041E42" fill-opacity="1.000000" fill-rule="nonzero"/>
</svg>
