<svg width="39.378906" height="36.229492" viewBox="0 0 39.3789 36.2295" fill="none" xmlns="http://www.w3.org/2000/svg" xmlns:xlink="http://www.w3.org/1999/xlink">
	<desc>
			Created with Pixso.
	</desc>
	<defs/>
	<path id="Vector" d="M39.31 20.78L36.32 3.56C35.91 1.22 33.71 -0.35 31.41 0.06L5.77 4.65C3.46 5.07 1.92 7.3 2.33 9.64L2.55 10.91C1.05 11.57 0 13.09 0 14.86L0 31.92C0 34.29 1.9 36.22 4.24 36.22L29.69 36.22C32.03 36.22 33.93 34.29 33.93 31.92L33.93 26.11L35.87 25.77C36.98 25.57 37.96 24.94 38.61 24C39.26 23.05 39.51 21.91 39.31 20.78ZM36.71 22.65C36.42 23.08 35.97 23.36 35.47 23.45L33.93 23.73L33.93 22.39L33.93 17.06L33.93 14.86C33.93 12.48 32.03 10.55 29.69 10.55L4.83 10.55L4.61 9.24C4.52 8.72 4.63 8.2 4.92 7.77C5.22 7.34 5.66 7.06 6.17 6.97L31.81 2.37C31.92 2.36 32.03 2.35 32.14 2.35C33.06 2.35 33.88 3.01 34.04 3.96L37.03 21.18C37.12 21.7 37.01 22.22 36.71 22.65ZM29.69 33.87L4.24 33.87C3.17 33.87 2.31 33 2.31 31.92L2.31 23.56L31.62 23.56L31.62 31.92C31.62 33 30.75 33.87 29.69 33.87ZM4.24 12.9L29.69 12.9C30.75 12.9 31.62 13.78 31.62 14.86L31.62 15.88L2.31 15.88L2.31 14.86C2.31 13.78 3.17 12.9 4.24 12.9ZM31.62 18.23L31.62 21.21L2.31 21.21L2.31 18.23L31.62 18.23Z" fill="#041E42" fill-opacity="1.000000" fill-rule="nonzero"/>
</svg>
